%TF.GenerationSoftware,KiCad,Pcbnew,7.0.10*%
%TF.CreationDate,2024-03-12T14:45:01-04:00*%
%TF.ProjectId,obc,6f62632e-6b69-4636-9164-5f7063625858,rev?*%
%TF.SameCoordinates,Original*%
%TF.FileFunction,Copper,L1,Top*%
%TF.FilePolarity,Positive*%
%FSLAX46Y46*%
G04 Gerber Fmt 4.6, Leading zero omitted, Abs format (unit mm)*
G04 Created by KiCad (PCBNEW 7.0.10) date 2024-03-12 14:45:01*
%MOMM*%
%LPD*%
G01*
G04 APERTURE LIST*
%TA.AperFunction,ComponentPad*%
%ADD10C,5.000000*%
%TD*%
%TA.AperFunction,ComponentPad*%
%ADD11R,1.350000X1.350000*%
%TD*%
%TA.AperFunction,ComponentPad*%
%ADD12O,1.350000X1.350000*%
%TD*%
%TA.AperFunction,ComponentPad*%
%ADD13C,0.900000*%
%TD*%
%TA.AperFunction,ComponentPad*%
%ADD14R,0.850000X0.850000*%
%TD*%
%TA.AperFunction,ComponentPad*%
%ADD15C,0.850000*%
%TD*%
%TA.AperFunction,ComponentPad*%
%ADD16C,1.600000*%
%TD*%
%TA.AperFunction,SMDPad,CuDef*%
%ADD17R,3.000000X1.000000*%
%TD*%
%TA.AperFunction,ComponentPad*%
%ADD18R,1.000000X1.000000*%
%TD*%
%TA.AperFunction,ComponentPad*%
%ADD19O,1.000000X1.000000*%
%TD*%
%TA.AperFunction,ViaPad*%
%ADD20C,0.800000*%
%TD*%
%TA.AperFunction,Conductor*%
%ADD21C,0.250000*%
%TD*%
%TA.AperFunction,Conductor*%
%ADD22C,0.400000*%
%TD*%
G04 APERTURE END LIST*
D10*
%TO.P,H2,1,1*%
%TO.N,unconnected-(H2-Pad1)*%
X53000000Y-53000000D03*
%TD*%
%TO.P,H4,1,1*%
%TO.N,unconnected-(H4-Pad1)*%
X89000000Y-89000000D03*
%TD*%
D11*
%TO.P,J1,1,RESET*%
%TO.N,RESET*%
X62000000Y-52000000D03*
D12*
%TO.P,J1,2,SCL0*%
%TO.N,SCL0*%
X64000000Y-52000000D03*
%TO.P,J1,3,SDA1*%
%TO.N,SDA0*%
X66000000Y-52000000D03*
%TO.P,J1,4,GND*%
%TO.N,GND*%
X68000000Y-52000000D03*
%TO.P,J1,5,5V*%
%TO.N,5V*%
X70000000Y-52000000D03*
%TO.P,J1,6,3V3*%
%TO.N,3V3*%
X72000000Y-52000000D03*
%TO.P,J1,7,A0_SCL1_RX1*%
%TO.N,SCL1{slash}TX1*%
X74000000Y-52000000D03*
%TO.P,J1,8,A1_SDA1_TX1*%
%TO.N,SDA1{slash}RX1*%
X76000000Y-52000000D03*
%TO.P,J1,9,A2_RX2*%
%TO.N,RX2*%
X78000000Y-52000000D03*
%TO.P,J1,10,A3_TX2*%
%TO.N,TX2*%
X80000000Y-52000000D03*
%TD*%
D13*
%TO.P,J3,1,1*%
%TO.N,RXD*%
X53985000Y-83160000D03*
%TO.P,J3,2,2*%
%TO.N,TXD*%
X53985000Y-81910000D03*
%TO.P,J3,3,3*%
%TO.N,ON{slash}OFF*%
X53985000Y-80660000D03*
%TO.P,J3,4,4*%
%TO.N,5V*%
X53985000Y-79410000D03*
%TO.P,J3,5,5*%
%TO.N,GND*%
X53985000Y-78160000D03*
%TD*%
D11*
%TO.P,J5,1,CLK*%
%TO.N,Net-(J5-CLK)*%
X86050000Y-84275000D03*
D12*
%TO.P,J5,2,SO*%
%TO.N,Net-(J5-SO)*%
X84050000Y-84275000D03*
%TO.P,J5,3,SI*%
%TO.N,Net-(J5-SI)*%
X82050000Y-84275000D03*
%TO.P,J5,4,CS*%
%TO.N,Net-(J5-CS)*%
X80050000Y-84275000D03*
%TO.P,J5,5,DET*%
%TO.N,Net-(J5-DET)*%
X78050000Y-84275000D03*
%TD*%
D14*
%TO.P,J6,1,1*%
%TO.N,5V*%
X87300002Y-78525001D03*
D15*
%TO.P,J6,2,2*%
%TO.N,Net-(J4-5V-Pad1)*%
X87300002Y-79775001D03*
%TD*%
D10*
%TO.P,H1,1,1*%
%TO.N,unconnected-(H1-Pad1)*%
X89000000Y-53000000D03*
%TD*%
%TO.P,H3,1,1*%
%TO.N,unconnected-(H3-Pad1)*%
X53000000Y-89000000D03*
%TD*%
D16*
%TO.P,U2,1,GND*%
%TO.N,unconnected-(U2-GND-Pad1)*%
X54940000Y-73950000D03*
%TO.P,U2,2,0_RX1_CRX2_CS1*%
%TO.N,unconnected-(U2-0_RX1_CRX2_CS1-Pad2)*%
X57480000Y-73950000D03*
%TO.P,U2,3,1_TX1_CTX2_MISO1*%
%TO.N,unconnected-(U2-1_TX1_CTX2_MISO1-Pad3)*%
X60020000Y-73950000D03*
%TO.P,U2,4,2_OUT2*%
%TO.N,unconnected-(U2-2_OUT2-Pad4)*%
X62560000Y-73950000D03*
%TO.P,U2,5,3_LRCLK2*%
%TO.N,unconnected-(U2-3_LRCLK2-Pad5)*%
X65100000Y-73950000D03*
%TO.P,U2,6,4_BCLK2*%
%TO.N,unconnected-(U2-4_BCLK2-Pad6)*%
X67640000Y-73950000D03*
%TO.P,U2,7,5_IN2*%
%TO.N,unconnected-(U2-5_IN2-Pad7)*%
X70180000Y-73950000D03*
%TO.P,U2,8,6_OUT1D*%
%TO.N,ON{slash}OFF*%
X72720000Y-73950000D03*
%TO.P,U2,9,7_RX2_OUT1A*%
%TO.N,TXD*%
X75260000Y-73950000D03*
%TO.P,U2,10,8_TX2_IN1*%
%TO.N,RXD*%
X77800000Y-73950000D03*
%TO.P,U2,11,9_OUT1C*%
%TO.N,Net-(J5-DET)*%
X80340000Y-73950000D03*
%TO.P,U2,12,10_CS_MQSR*%
%TO.N,Net-(J5-CS)*%
X82880000Y-73950000D03*
%TO.P,U2,13,11_MOSI_CTX1*%
%TO.N,Net-(J5-SI)*%
X85420000Y-73950000D03*
%TO.P,U2,14,12_MISO_MQSL*%
%TO.N,Net-(J5-SO)*%
X87960000Y-73950000D03*
%TO.P,U2,15,VBAT*%
%TO.N,unconnected-(U2-VBAT-Pad15)*%
X87960000Y-71410000D03*
%TO.P,U2,16,3V3*%
%TO.N,unconnected-(U2-3V3-Pad16)*%
X87960000Y-68870000D03*
%TO.P,U2,17,GND*%
%TO.N,GND*%
X87960000Y-66330000D03*
%TO.P,U2,18,PROGRAM*%
%TO.N,unconnected-(U2-PROGRAM-Pad18)*%
X87960000Y-63790000D03*
%TO.P,U2,19,ON_OFF*%
%TO.N,unconnected-(U2-ON_OFF-Pad19)*%
X87960000Y-61250000D03*
%TO.P,U2,20,13_SCK_CRX1_LED*%
%TO.N,Net-(J5-CLK)*%
X87960000Y-58710000D03*
%TO.P,U2,21,14_A0_TX3_SPDIF_OUT*%
%TO.N,RX2*%
X85420000Y-58710000D03*
%TO.P,U2,22,15_A1_RX3_SPDIF_IN*%
%TO.N,TX2*%
X82880000Y-58710000D03*
%TO.P,U2,23,16_A2_RX4_SCL1*%
%TO.N,SCL1{slash}TX1*%
X80340000Y-58710000D03*
%TO.P,U2,24,17_A3_TX4_SDA1*%
%TO.N,SDA1{slash}RX1*%
X77800000Y-58710000D03*
%TO.P,U2,25,18_A4_SDA0*%
%TO.N,SDA0*%
X75260000Y-58710000D03*
%TO.P,U2,26,19_A5_SCL0*%
%TO.N,SCL0*%
X72720000Y-58710000D03*
%TO.P,U2,27,20_A6_TX5_LRCLK1*%
%TO.N,unconnected-(U2-20_A6_TX5_LRCLK1-Pad27)*%
X70180000Y-58710000D03*
%TO.P,U2,28,21_A7_RX5_BCLK1*%
%TO.N,unconnected-(U2-21_A7_RX5_BCLK1-Pad28)*%
X67640000Y-58710000D03*
%TO.P,U2,29,22_A8_CTX1*%
%TO.N,SAT_PWR_ENABLE*%
X65100000Y-58710000D03*
%TO.P,U2,30,23_A9_CRX1_MCLK1*%
%TO.N,RESET*%
X62560000Y-58710000D03*
%TO.P,U2,31,3V3*%
%TO.N,3V3*%
X60020000Y-58710000D03*
%TO.P,U2,32,GND*%
%TO.N,unconnected-(U2-GND-Pad32)*%
X57480000Y-58710000D03*
%TO.P,U2,33,VIN*%
%TO.N,5V*%
X54940000Y-58710000D03*
%TO.P,U2,34,VUSB*%
%TO.N,unconnected-(U2-VUSB-Pad34)*%
X57480000Y-61250000D03*
D17*
%TO.P,U2,35,24_A10_TX6_SCL2*%
%TO.N,unconnected-(U2-24_A10_TX6_SCL2-Pad35)*%
X84880000Y-61250000D03*
%TO.P,U2,36,25_A11_RX6_SDA2*%
%TO.N,unconnected-(U2-25_A11_RX6_SDA2-Pad36)*%
X81340000Y-61250000D03*
%TO.P,U2,37,26_A12_MOSI1*%
%TO.N,unconnected-(U2-26_A12_MOSI1-Pad37)*%
X84880000Y-63790000D03*
%TO.P,U2,38,27_A13_SCK1*%
%TO.N,unconnected-(U2-27_A13_SCK1-Pad38)*%
X81340000Y-63790000D03*
%TO.P,U2,39,28_RX7*%
%TO.N,unconnected-(U2-28_RX7-Pad39)*%
X84880000Y-66330000D03*
%TO.P,U2,40,29_TX7*%
%TO.N,unconnected-(U2-29_TX7-Pad40)*%
X81340000Y-66330000D03*
%TO.P,U2,41,30_CRX3*%
%TO.N,unconnected-(U2-30_CRX3-Pad41)*%
X84880000Y-68870000D03*
%TO.P,U2,42,31_CTX3*%
%TO.N,unconnected-(U2-31_CTX3-Pad42)*%
X81340000Y-68870000D03*
%TO.P,U2,43,32_OUT1B*%
%TO.N,unconnected-(U2-32_OUT1B-Pad43)*%
X84880000Y-71410000D03*
%TO.P,U2,44,33_MCLK2*%
%TO.N,unconnected-(U2-33_MCLK2-Pad44)*%
X81340000Y-71410000D03*
%TD*%
D18*
%TO.P,J4,1,5V*%
%TO.N,Net-(J4-5V-Pad1)*%
X83050000Y-87815000D03*
D19*
%TO.P,J4,2,3V3*%
%TO.N,unconnected-(J4-3V3-Pad2)*%
X83050000Y-89085000D03*
%TO.P,J4,3,5V*%
%TO.N,unconnected-(J4-5V-Pad3)*%
X81780000Y-87815000D03*
%TO.P,J4,4,3V3*%
%TO.N,unconnected-(J4-3V3-Pad4)*%
X81780000Y-89085000D03*
%TO.P,J4,5,SAT_PWR_EN*%
%TO.N,SAT_PWR_ENABLE*%
X80510000Y-87815000D03*
%TO.P,J4,6*%
%TO.N,unconnected-(J4-Pad6)*%
X80510000Y-89085000D03*
%TO.P,J4,7,IMU_INT*%
%TO.N,unconnected-(J4-IMU_INT-Pad7)*%
X79240000Y-87815000D03*
%TO.P,J4,8,GND*%
%TO.N,unconnected-(J4-GND-Pad8)*%
X79240000Y-89085000D03*
%TO.P,J4,9,0*%
%TO.N,unconnected-(J4-0-Pad9)*%
X77970000Y-87815000D03*
%TO.P,J4,10,14*%
%TO.N,unconnected-(J4-14-Pad10)*%
X77970000Y-89085000D03*
%TO.P,J4,11,1*%
%TO.N,unconnected-(J4-1-Pad11)*%
X76700000Y-87815000D03*
%TO.P,J4,12,15*%
%TO.N,unconnected-(J4-15-Pad12)*%
X76700000Y-89085000D03*
%TO.P,J4,13,2*%
%TO.N,unconnected-(J4-2-Pad13)*%
X75430000Y-87815000D03*
%TO.P,J4,14,16*%
%TO.N,unconnected-(J4-16-Pad14)*%
X75430000Y-89085000D03*
%TO.P,J4,15,3*%
%TO.N,unconnected-(J4-3-Pad15)*%
X74160000Y-87815000D03*
%TO.P,J4,16,17*%
%TO.N,unconnected-(J4-17-Pad16)*%
X74160000Y-89085000D03*
%TO.P,J4,17,4*%
%TO.N,unconnected-(J4-4-Pad17)*%
X72890000Y-87815000D03*
%TO.P,J4,18,18*%
%TO.N,unconnected-(J4-Pad18)*%
X72890000Y-89085000D03*
%TO.P,J4,19,5*%
%TO.N,unconnected-(J4-5-Pad19)*%
X71620000Y-87815000D03*
%TO.P,J4,20,19*%
%TO.N,unconnected-(J4-19-Pad20)*%
X71620000Y-89085000D03*
%TO.P,J4,21,GND*%
%TO.N,unconnected-(J4-GND-Pad21)*%
X70350000Y-87815000D03*
%TO.P,J4,22,23*%
%TO.N,unconnected-(J4-23-Pad22)*%
X70350000Y-89085000D03*
%TO.P,J4,23,6*%
%TO.N,unconnected-(J4-6-Pad23)*%
X69080000Y-87815000D03*
%TO.P,J4,24,24*%
%TO.N,unconnected-(J4-Pad24)*%
X69080000Y-89085000D03*
%TO.P,J4,25,7*%
%TO.N,unconnected-(J4-7-Pad25)*%
X67810000Y-87815000D03*
%TO.P,J4,26,22*%
%TO.N,unconnected-(J4-22-Pad26)*%
X67810000Y-89085000D03*
%TO.P,J4,27,8*%
%TO.N,unconnected-(J4-8-Pad27)*%
X66540000Y-87815000D03*
%TO.P,J4,28,30*%
%TO.N,unconnected-(J4-30-Pad28)*%
X66540000Y-89085000D03*
%TO.P,J4,29,3V3*%
%TO.N,unconnected-(J4-3V3-Pad29)*%
X65270000Y-87815000D03*
%TO.P,J4,30,31*%
%TO.N,unconnected-(J4-31-Pad30)*%
X65270000Y-89085000D03*
%TO.P,J4,31,3V3*%
%TO.N,unconnected-(J4-3V3-Pad31)*%
X64000000Y-87815000D03*
%TO.P,J4,32,GND*%
%TO.N,GND*%
X64000000Y-89085000D03*
%TO.P,J4,33,20*%
%TO.N,SDA0*%
X62730000Y-87815000D03*
%TO.P,J4,34,12*%
%TO.N,unconnected-(J4-12-Pad34)*%
X62730000Y-89085000D03*
%TO.P,J4,35,21*%
%TO.N,SCL0*%
X61460000Y-87815000D03*
%TO.P,J4,36,RESET*%
%TO.N,EPS_RESET*%
X61460000Y-89085000D03*
%TO.P,J4,37,9*%
%TO.N,unconnected-(J4-9-Pad37)*%
X60190000Y-87815000D03*
%TO.P,J4,38,32*%
%TO.N,unconnected-(J4-32-Pad38)*%
X60190000Y-89085000D03*
%TO.P,J4,39,GND*%
%TO.N,unconnected-(J4-GND-Pad39)*%
X58920000Y-87815000D03*
%TO.P,J4,40,33*%
%TO.N,unconnected-(J4-33-Pad40)*%
X58920000Y-89085000D03*
%TD*%
D20*
%TO.N,SAT_PWR_ENABLE*%
X63350000Y-83885000D03*
%TD*%
D21*
%TO.N,SDA1{slash}RX1*%
X77800000Y-53750000D02*
X76050000Y-52000000D01*
X77800000Y-58710000D02*
X77800000Y-53750000D01*
X76050000Y-52000000D02*
X76000000Y-52000000D01*
%TO.N,RX2*%
X85420000Y-58670000D02*
X85420000Y-58710000D01*
X82200000Y-55450000D02*
X85420000Y-58670000D01*
X81450000Y-55450000D02*
X82200000Y-55450000D01*
X78000000Y-52000000D02*
X81450000Y-55450000D01*
D22*
%TO.N,5V*%
X82000000Y-50550000D02*
X71450000Y-50550000D01*
X90600000Y-59150000D02*
X82000000Y-50550000D01*
X87300002Y-78525001D02*
X90600000Y-75225003D01*
X90600000Y-75225003D02*
X90600000Y-59150000D01*
X71450000Y-50550000D02*
X70000000Y-52000000D01*
%TO.N,Net-(J4-5V-Pad1)*%
X87300002Y-85024998D02*
X87300002Y-79775001D01*
X84510000Y-87815000D02*
X87300002Y-85024998D01*
X83050000Y-87815000D02*
X84510000Y-87815000D01*
%TO.N,GND*%
X64000000Y-89792106D02*
X64000000Y-89085000D01*
X63342106Y-90450000D02*
X64000000Y-89792106D01*
X58400000Y-90450000D02*
X63342106Y-90450000D01*
X56300000Y-88350000D02*
X58400000Y-90450000D01*
X53985000Y-78160000D02*
X56300000Y-80475000D01*
X56300000Y-80475000D02*
X56300000Y-88350000D01*
D21*
%TO.N,SAT_PWR_ENABLE*%
X66515000Y-60125000D02*
X65100000Y-58710000D01*
X66515000Y-80635000D02*
X66515000Y-60125000D01*
X63350000Y-83885000D02*
X63350000Y-83800000D01*
X63350000Y-83800000D02*
X66515000Y-80635000D01*
D22*
%TO.N,3V3*%
X63280000Y-55450000D02*
X60020000Y-58710000D01*
X68550000Y-55450000D02*
X63280000Y-55450000D01*
X72000000Y-52000000D02*
X68550000Y-55450000D01*
D21*
%TO.N,Net-(J5-DET)*%
X80340000Y-73950000D02*
X80340000Y-79910000D01*
X80340000Y-79910000D02*
X78050000Y-82200000D01*
X78050000Y-82200000D02*
X78050000Y-84275000D01*
%TO.N,Net-(J5-SO)*%
X84050000Y-84275000D02*
X84050000Y-82200000D01*
X86100000Y-80150000D02*
X86100000Y-75810000D01*
X86100000Y-75810000D02*
X87960000Y-73950000D01*
X84050000Y-82200000D02*
X86100000Y-80150000D01*
%TO.N,Net-(J5-SI)*%
X85280000Y-79965000D02*
X82050000Y-83195000D01*
X85280000Y-74090000D02*
X85280000Y-79965000D01*
X85420000Y-73950000D02*
X85280000Y-74090000D01*
X82050000Y-83195000D02*
X82050000Y-84275000D01*
%TO.N,Net-(J5-CS)*%
X82880000Y-73950000D02*
X82740000Y-74090000D01*
X80050000Y-82655000D02*
X80050000Y-84275000D01*
X82740000Y-79965000D02*
X80050000Y-82655000D01*
X82740000Y-74090000D02*
X82740000Y-79965000D01*
%TO.N,SCL0*%
X61460000Y-87090000D02*
X69055000Y-79495000D01*
X69055000Y-62375000D02*
X72720000Y-58710000D01*
X61460000Y-87465000D02*
X61460000Y-87090000D01*
X69055000Y-79495000D02*
X69055000Y-62375000D01*
%TO.N,SDA0*%
X71300000Y-78895000D02*
X71300000Y-74420991D01*
X71305000Y-62665000D02*
X75260000Y-58710000D01*
X71300000Y-74420991D02*
X71305000Y-74415991D01*
X62730000Y-87465000D02*
X71300000Y-78895000D01*
X71305000Y-74415991D02*
X71305000Y-62665000D01*
%TD*%
M02*
