%TF.GenerationSoftware,KiCad,Pcbnew,7.0.10*%
%TF.CreationDate,2024-03-12T14:45:01-04:00*%
%TF.ProjectId,obc,6f62632e-6b69-4636-9164-5f7063625858,rev?*%
%TF.SameCoordinates,Original*%
%TF.FileFunction,Legend,Top*%
%TF.FilePolarity,Positive*%
%FSLAX46Y46*%
G04 Gerber Fmt 4.6, Leading zero omitted, Abs format (unit mm)*
G04 Created by KiCad (PCBNEW 7.0.10) date 2024-03-12 14:45:01*
%MOMM*%
%LPD*%
G01*
G04 APERTURE LIST*
%ADD10C,0.100000*%
%ADD11C,0.200000*%
%ADD12C,0.150000*%
%ADD13C,0.254000*%
%ADD14C,0.120000*%
%ADD15C,0.127000*%
G04 APERTURE END LIST*
D10*
X60503014Y-85277068D02*
X60145871Y-85527068D01*
X60503014Y-85705639D02*
X59753014Y-85705639D01*
X59753014Y-85705639D02*
X59753014Y-85419925D01*
X59753014Y-85419925D02*
X59788728Y-85348496D01*
X59788728Y-85348496D02*
X59824442Y-85312782D01*
X59824442Y-85312782D02*
X59895871Y-85277068D01*
X59895871Y-85277068D02*
X60003014Y-85277068D01*
X60003014Y-85277068D02*
X60074442Y-85312782D01*
X60074442Y-85312782D02*
X60110157Y-85348496D01*
X60110157Y-85348496D02*
X60145871Y-85419925D01*
X60145871Y-85419925D02*
X60145871Y-85705639D01*
X59753014Y-84812782D02*
X59753014Y-84669925D01*
X59753014Y-84669925D02*
X59788728Y-84598496D01*
X59788728Y-84598496D02*
X59860157Y-84527068D01*
X59860157Y-84527068D02*
X60003014Y-84491353D01*
X60003014Y-84491353D02*
X60253014Y-84491353D01*
X60253014Y-84491353D02*
X60395871Y-84527068D01*
X60395871Y-84527068D02*
X60467300Y-84598496D01*
X60467300Y-84598496D02*
X60503014Y-84669925D01*
X60503014Y-84669925D02*
X60503014Y-84812782D01*
X60503014Y-84812782D02*
X60467300Y-84884211D01*
X60467300Y-84884211D02*
X60395871Y-84955639D01*
X60395871Y-84955639D02*
X60253014Y-84991353D01*
X60253014Y-84991353D02*
X60003014Y-84991353D01*
X60003014Y-84991353D02*
X59860157Y-84955639D01*
X59860157Y-84955639D02*
X59788728Y-84884211D01*
X59788728Y-84884211D02*
X59753014Y-84812782D01*
X60431585Y-83741354D02*
X60467300Y-83777068D01*
X60467300Y-83777068D02*
X60503014Y-83884211D01*
X60503014Y-83884211D02*
X60503014Y-83955639D01*
X60503014Y-83955639D02*
X60467300Y-84062782D01*
X60467300Y-84062782D02*
X60395871Y-84134211D01*
X60395871Y-84134211D02*
X60324442Y-84169925D01*
X60324442Y-84169925D02*
X60181585Y-84205639D01*
X60181585Y-84205639D02*
X60074442Y-84205639D01*
X60074442Y-84205639D02*
X59931585Y-84169925D01*
X59931585Y-84169925D02*
X59860157Y-84134211D01*
X59860157Y-84134211D02*
X59788728Y-84062782D01*
X59788728Y-84062782D02*
X59753014Y-83955639D01*
X59753014Y-83955639D02*
X59753014Y-83884211D01*
X59753014Y-83884211D02*
X59788728Y-83777068D01*
X59788728Y-83777068D02*
X59824442Y-83741354D01*
X60503014Y-83419925D02*
X59753014Y-83419925D01*
X60503014Y-82991354D02*
X60074442Y-83312782D01*
X59753014Y-82991354D02*
X60181585Y-83419925D01*
X60110157Y-82419925D02*
X60145871Y-82312782D01*
X60145871Y-82312782D02*
X60181585Y-82277068D01*
X60181585Y-82277068D02*
X60253014Y-82241354D01*
X60253014Y-82241354D02*
X60360157Y-82241354D01*
X60360157Y-82241354D02*
X60431585Y-82277068D01*
X60431585Y-82277068D02*
X60467300Y-82312782D01*
X60467300Y-82312782D02*
X60503014Y-82384211D01*
X60503014Y-82384211D02*
X60503014Y-82669925D01*
X60503014Y-82669925D02*
X59753014Y-82669925D01*
X59753014Y-82669925D02*
X59753014Y-82419925D01*
X59753014Y-82419925D02*
X59788728Y-82348497D01*
X59788728Y-82348497D02*
X59824442Y-82312782D01*
X59824442Y-82312782D02*
X59895871Y-82277068D01*
X59895871Y-82277068D02*
X59967300Y-82277068D01*
X59967300Y-82277068D02*
X60038728Y-82312782D01*
X60038728Y-82312782D02*
X60074442Y-82348497D01*
X60074442Y-82348497D02*
X60110157Y-82419925D01*
X60110157Y-82419925D02*
X60110157Y-82669925D01*
X60503014Y-81562782D02*
X60503014Y-81919925D01*
X60503014Y-81919925D02*
X59753014Y-81919925D01*
X59753014Y-81169925D02*
X59753014Y-81027068D01*
X59753014Y-81027068D02*
X59788728Y-80955639D01*
X59788728Y-80955639D02*
X59860157Y-80884211D01*
X59860157Y-80884211D02*
X60003014Y-80848496D01*
X60003014Y-80848496D02*
X60253014Y-80848496D01*
X60253014Y-80848496D02*
X60395871Y-80884211D01*
X60395871Y-80884211D02*
X60467300Y-80955639D01*
X60467300Y-80955639D02*
X60503014Y-81027068D01*
X60503014Y-81027068D02*
X60503014Y-81169925D01*
X60503014Y-81169925D02*
X60467300Y-81241354D01*
X60467300Y-81241354D02*
X60395871Y-81312782D01*
X60395871Y-81312782D02*
X60253014Y-81348496D01*
X60253014Y-81348496D02*
X60003014Y-81348496D01*
X60003014Y-81348496D02*
X59860157Y-81312782D01*
X59860157Y-81312782D02*
X59788728Y-81241354D01*
X59788728Y-81241354D02*
X59753014Y-81169925D01*
X60431585Y-80098497D02*
X60467300Y-80134211D01*
X60467300Y-80134211D02*
X60503014Y-80241354D01*
X60503014Y-80241354D02*
X60503014Y-80312782D01*
X60503014Y-80312782D02*
X60467300Y-80419925D01*
X60467300Y-80419925D02*
X60395871Y-80491354D01*
X60395871Y-80491354D02*
X60324442Y-80527068D01*
X60324442Y-80527068D02*
X60181585Y-80562782D01*
X60181585Y-80562782D02*
X60074442Y-80562782D01*
X60074442Y-80562782D02*
X59931585Y-80527068D01*
X59931585Y-80527068D02*
X59860157Y-80491354D01*
X59860157Y-80491354D02*
X59788728Y-80419925D01*
X59788728Y-80419925D02*
X59753014Y-80312782D01*
X59753014Y-80312782D02*
X59753014Y-80241354D01*
X59753014Y-80241354D02*
X59788728Y-80134211D01*
X59788728Y-80134211D02*
X59824442Y-80098497D01*
X60503014Y-79777068D02*
X59753014Y-79777068D01*
X60503014Y-79348497D02*
X60074442Y-79669925D01*
X59753014Y-79348497D02*
X60181585Y-79777068D01*
D11*
X65950000Y-77641028D02*
X66807143Y-77641028D01*
X66378571Y-79141028D02*
X66378571Y-77641028D01*
X67307142Y-79141028D02*
X67307142Y-77641028D01*
X68807143Y-77712457D02*
X68664286Y-77641028D01*
X68664286Y-77641028D02*
X68450000Y-77641028D01*
X68450000Y-77641028D02*
X68235714Y-77712457D01*
X68235714Y-77712457D02*
X68092857Y-77855314D01*
X68092857Y-77855314D02*
X68021428Y-77998171D01*
X68021428Y-77998171D02*
X67950000Y-78283885D01*
X67950000Y-78283885D02*
X67950000Y-78498171D01*
X67950000Y-78498171D02*
X68021428Y-78783885D01*
X68021428Y-78783885D02*
X68092857Y-78926742D01*
X68092857Y-78926742D02*
X68235714Y-79069600D01*
X68235714Y-79069600D02*
X68450000Y-79141028D01*
X68450000Y-79141028D02*
X68592857Y-79141028D01*
X68592857Y-79141028D02*
X68807143Y-79069600D01*
X68807143Y-79069600D02*
X68878571Y-78998171D01*
X68878571Y-78998171D02*
X68878571Y-78498171D01*
X68878571Y-78498171D02*
X68592857Y-78498171D01*
X69521428Y-78355314D02*
X70021428Y-78355314D01*
X70235714Y-79141028D02*
X69521428Y-79141028D01*
X69521428Y-79141028D02*
X69521428Y-77641028D01*
X69521428Y-77641028D02*
X70235714Y-77641028D01*
X71735714Y-79141028D02*
X71235714Y-78426742D01*
X70878571Y-79141028D02*
X70878571Y-77641028D01*
X70878571Y-77641028D02*
X71450000Y-77641028D01*
X71450000Y-77641028D02*
X71592857Y-77712457D01*
X71592857Y-77712457D02*
X71664286Y-77783885D01*
X71664286Y-77783885D02*
X71735714Y-77926742D01*
X71735714Y-77926742D02*
X71735714Y-78141028D01*
X71735714Y-78141028D02*
X71664286Y-78283885D01*
X71664286Y-78283885D02*
X71592857Y-78355314D01*
X71592857Y-78355314D02*
X71450000Y-78426742D01*
X71450000Y-78426742D02*
X70878571Y-78426742D01*
X73235714Y-78998171D02*
X73164286Y-79069600D01*
X73164286Y-79069600D02*
X72950000Y-79141028D01*
X72950000Y-79141028D02*
X72807143Y-79141028D01*
X72807143Y-79141028D02*
X72592857Y-79069600D01*
X72592857Y-79069600D02*
X72450000Y-78926742D01*
X72450000Y-78926742D02*
X72378571Y-78783885D01*
X72378571Y-78783885D02*
X72307143Y-78498171D01*
X72307143Y-78498171D02*
X72307143Y-78283885D01*
X72307143Y-78283885D02*
X72378571Y-77998171D01*
X72378571Y-77998171D02*
X72450000Y-77855314D01*
X72450000Y-77855314D02*
X72592857Y-77712457D01*
X72592857Y-77712457D02*
X72807143Y-77641028D01*
X72807143Y-77641028D02*
X72950000Y-77641028D01*
X72950000Y-77641028D02*
X73164286Y-77712457D01*
X73164286Y-77712457D02*
X73235714Y-77783885D01*
X73878571Y-77641028D02*
X73878571Y-78855314D01*
X73878571Y-78855314D02*
X73950000Y-78998171D01*
X73950000Y-78998171D02*
X74021429Y-79069600D01*
X74021429Y-79069600D02*
X74164286Y-79141028D01*
X74164286Y-79141028D02*
X74450000Y-79141028D01*
X74450000Y-79141028D02*
X74592857Y-79069600D01*
X74592857Y-79069600D02*
X74664286Y-78998171D01*
X74664286Y-78998171D02*
X74735714Y-78855314D01*
X74735714Y-78855314D02*
X74735714Y-77641028D01*
X75950000Y-78355314D02*
X76164286Y-78426742D01*
X76164286Y-78426742D02*
X76235715Y-78498171D01*
X76235715Y-78498171D02*
X76307143Y-78641028D01*
X76307143Y-78641028D02*
X76307143Y-78855314D01*
X76307143Y-78855314D02*
X76235715Y-78998171D01*
X76235715Y-78998171D02*
X76164286Y-79069600D01*
X76164286Y-79069600D02*
X76021429Y-79141028D01*
X76021429Y-79141028D02*
X75450000Y-79141028D01*
X75450000Y-79141028D02*
X75450000Y-77641028D01*
X75450000Y-77641028D02*
X75950000Y-77641028D01*
X75950000Y-77641028D02*
X76092858Y-77712457D01*
X76092858Y-77712457D02*
X76164286Y-77783885D01*
X76164286Y-77783885D02*
X76235715Y-77926742D01*
X76235715Y-77926742D02*
X76235715Y-78069600D01*
X76235715Y-78069600D02*
X76164286Y-78212457D01*
X76164286Y-78212457D02*
X76092858Y-78283885D01*
X76092858Y-78283885D02*
X75950000Y-78355314D01*
X75950000Y-78355314D02*
X75450000Y-78355314D01*
X65914286Y-80056028D02*
X66200000Y-80056028D01*
X66200000Y-80056028D02*
X66342857Y-80127457D01*
X66342857Y-80127457D02*
X66485714Y-80270314D01*
X66485714Y-80270314D02*
X66557143Y-80556028D01*
X66557143Y-80556028D02*
X66557143Y-81056028D01*
X66557143Y-81056028D02*
X66485714Y-81341742D01*
X66485714Y-81341742D02*
X66342857Y-81484600D01*
X66342857Y-81484600D02*
X66200000Y-81556028D01*
X66200000Y-81556028D02*
X65914286Y-81556028D01*
X65914286Y-81556028D02*
X65771429Y-81484600D01*
X65771429Y-81484600D02*
X65628571Y-81341742D01*
X65628571Y-81341742D02*
X65557143Y-81056028D01*
X65557143Y-81056028D02*
X65557143Y-80556028D01*
X65557143Y-80556028D02*
X65628571Y-80270314D01*
X65628571Y-80270314D02*
X65771429Y-80127457D01*
X65771429Y-80127457D02*
X65914286Y-80056028D01*
X67700000Y-80770314D02*
X67914286Y-80841742D01*
X67914286Y-80841742D02*
X67985715Y-80913171D01*
X67985715Y-80913171D02*
X68057143Y-81056028D01*
X68057143Y-81056028D02*
X68057143Y-81270314D01*
X68057143Y-81270314D02*
X67985715Y-81413171D01*
X67985715Y-81413171D02*
X67914286Y-81484600D01*
X67914286Y-81484600D02*
X67771429Y-81556028D01*
X67771429Y-81556028D02*
X67200000Y-81556028D01*
X67200000Y-81556028D02*
X67200000Y-80056028D01*
X67200000Y-80056028D02*
X67700000Y-80056028D01*
X67700000Y-80056028D02*
X67842858Y-80127457D01*
X67842858Y-80127457D02*
X67914286Y-80198885D01*
X67914286Y-80198885D02*
X67985715Y-80341742D01*
X67985715Y-80341742D02*
X67985715Y-80484600D01*
X67985715Y-80484600D02*
X67914286Y-80627457D01*
X67914286Y-80627457D02*
X67842858Y-80698885D01*
X67842858Y-80698885D02*
X67700000Y-80770314D01*
X67700000Y-80770314D02*
X67200000Y-80770314D01*
X69557143Y-81413171D02*
X69485715Y-81484600D01*
X69485715Y-81484600D02*
X69271429Y-81556028D01*
X69271429Y-81556028D02*
X69128572Y-81556028D01*
X69128572Y-81556028D02*
X68914286Y-81484600D01*
X68914286Y-81484600D02*
X68771429Y-81341742D01*
X68771429Y-81341742D02*
X68700000Y-81198885D01*
X68700000Y-81198885D02*
X68628572Y-80913171D01*
X68628572Y-80913171D02*
X68628572Y-80698885D01*
X68628572Y-80698885D02*
X68700000Y-80413171D01*
X68700000Y-80413171D02*
X68771429Y-80270314D01*
X68771429Y-80270314D02*
X68914286Y-80127457D01*
X68914286Y-80127457D02*
X69128572Y-80056028D01*
X69128572Y-80056028D02*
X69271429Y-80056028D01*
X69271429Y-80056028D02*
X69485715Y-80127457D01*
X69485715Y-80127457D02*
X69557143Y-80198885D01*
X70985715Y-81556028D02*
X70128572Y-81556028D01*
X70557143Y-81556028D02*
X70557143Y-80056028D01*
X70557143Y-80056028D02*
X70414286Y-80270314D01*
X70414286Y-80270314D02*
X70271429Y-80413171D01*
X70271429Y-80413171D02*
X70128572Y-80484600D01*
X72628571Y-80556028D02*
X72985714Y-81556028D01*
X72985714Y-81556028D02*
X73342857Y-80556028D01*
X74700000Y-81556028D02*
X73842857Y-81556028D01*
X74271428Y-81556028D02*
X74271428Y-80056028D01*
X74271428Y-80056028D02*
X74128571Y-80270314D01*
X74128571Y-80270314D02*
X73985714Y-80413171D01*
X73985714Y-80413171D02*
X73842857Y-80484600D01*
X75342856Y-81413171D02*
X75414285Y-81484600D01*
X75414285Y-81484600D02*
X75342856Y-81556028D01*
X75342856Y-81556028D02*
X75271428Y-81484600D01*
X75271428Y-81484600D02*
X75342856Y-81413171D01*
X75342856Y-81413171D02*
X75342856Y-81556028D01*
X76342857Y-80056028D02*
X76485714Y-80056028D01*
X76485714Y-80056028D02*
X76628571Y-80127457D01*
X76628571Y-80127457D02*
X76700000Y-80198885D01*
X76700000Y-80198885D02*
X76771428Y-80341742D01*
X76771428Y-80341742D02*
X76842857Y-80627457D01*
X76842857Y-80627457D02*
X76842857Y-80984600D01*
X76842857Y-80984600D02*
X76771428Y-81270314D01*
X76771428Y-81270314D02*
X76700000Y-81413171D01*
X76700000Y-81413171D02*
X76628571Y-81484600D01*
X76628571Y-81484600D02*
X76485714Y-81556028D01*
X76485714Y-81556028D02*
X76342857Y-81556028D01*
X76342857Y-81556028D02*
X76200000Y-81484600D01*
X76200000Y-81484600D02*
X76128571Y-81413171D01*
X76128571Y-81413171D02*
X76057142Y-81270314D01*
X76057142Y-81270314D02*
X75985714Y-80984600D01*
X75985714Y-80984600D02*
X75985714Y-80627457D01*
X75985714Y-80627457D02*
X76057142Y-80341742D01*
X76057142Y-80341742D02*
X76128571Y-80198885D01*
X76128571Y-80198885D02*
X76200000Y-80127457D01*
X76200000Y-80127457D02*
X76342857Y-80056028D01*
D12*
X57093922Y-55819819D02*
X57665350Y-55819819D01*
X57379636Y-56819819D02*
X57379636Y-55819819D01*
X58379636Y-56772200D02*
X58284398Y-56819819D01*
X58284398Y-56819819D02*
X58093922Y-56819819D01*
X58093922Y-56819819D02*
X57998684Y-56772200D01*
X57998684Y-56772200D02*
X57951065Y-56676961D01*
X57951065Y-56676961D02*
X57951065Y-56296009D01*
X57951065Y-56296009D02*
X57998684Y-56200771D01*
X57998684Y-56200771D02*
X58093922Y-56153152D01*
X58093922Y-56153152D02*
X58284398Y-56153152D01*
X58284398Y-56153152D02*
X58379636Y-56200771D01*
X58379636Y-56200771D02*
X58427255Y-56296009D01*
X58427255Y-56296009D02*
X58427255Y-56391247D01*
X58427255Y-56391247D02*
X57951065Y-56486485D01*
X59236779Y-56772200D02*
X59141541Y-56819819D01*
X59141541Y-56819819D02*
X58951065Y-56819819D01*
X58951065Y-56819819D02*
X58855827Y-56772200D01*
X58855827Y-56772200D02*
X58808208Y-56676961D01*
X58808208Y-56676961D02*
X58808208Y-56296009D01*
X58808208Y-56296009D02*
X58855827Y-56200771D01*
X58855827Y-56200771D02*
X58951065Y-56153152D01*
X58951065Y-56153152D02*
X59141541Y-56153152D01*
X59141541Y-56153152D02*
X59236779Y-56200771D01*
X59236779Y-56200771D02*
X59284398Y-56296009D01*
X59284398Y-56296009D02*
X59284398Y-56391247D01*
X59284398Y-56391247D02*
X58808208Y-56486485D01*
X59712970Y-56153152D02*
X59712970Y-56819819D01*
X59712970Y-56248390D02*
X59760589Y-56200771D01*
X59760589Y-56200771D02*
X59855827Y-56153152D01*
X59855827Y-56153152D02*
X59998684Y-56153152D01*
X59998684Y-56153152D02*
X60093922Y-56200771D01*
X60093922Y-56200771D02*
X60141541Y-56296009D01*
X60141541Y-56296009D02*
X60141541Y-56819819D01*
X60570113Y-56772200D02*
X60665351Y-56819819D01*
X60665351Y-56819819D02*
X60855827Y-56819819D01*
X60855827Y-56819819D02*
X60951065Y-56772200D01*
X60951065Y-56772200D02*
X60998684Y-56676961D01*
X60998684Y-56676961D02*
X60998684Y-56629342D01*
X60998684Y-56629342D02*
X60951065Y-56534104D01*
X60951065Y-56534104D02*
X60855827Y-56486485D01*
X60855827Y-56486485D02*
X60712970Y-56486485D01*
X60712970Y-56486485D02*
X60617732Y-56438866D01*
X60617732Y-56438866D02*
X60570113Y-56343628D01*
X60570113Y-56343628D02*
X60570113Y-56296009D01*
X60570113Y-56296009D02*
X60617732Y-56200771D01*
X60617732Y-56200771D02*
X60712970Y-56153152D01*
X60712970Y-56153152D02*
X60855827Y-56153152D01*
X60855827Y-56153152D02*
X60951065Y-56200771D01*
X61332018Y-56153152D02*
X61570113Y-56819819D01*
X61808208Y-56153152D02*
X61570113Y-56819819D01*
X61570113Y-56819819D02*
X61474875Y-57057914D01*
X61474875Y-57057914D02*
X61427256Y-57105533D01*
X61427256Y-57105533D02*
X61332018Y-57153152D01*
X63379637Y-56153152D02*
X63379637Y-56819819D01*
X63141542Y-55772200D02*
X62903447Y-56486485D01*
X62903447Y-56486485D02*
X63522494Y-56486485D01*
X63903447Y-56724580D02*
X63951066Y-56772200D01*
X63951066Y-56772200D02*
X63903447Y-56819819D01*
X63903447Y-56819819D02*
X63855828Y-56772200D01*
X63855828Y-56772200D02*
X63903447Y-56724580D01*
X63903447Y-56724580D02*
X63903447Y-56819819D01*
X64570113Y-55819819D02*
X64665351Y-55819819D01*
X64665351Y-55819819D02*
X64760589Y-55867438D01*
X64760589Y-55867438D02*
X64808208Y-55915057D01*
X64808208Y-55915057D02*
X64855827Y-56010295D01*
X64855827Y-56010295D02*
X64903446Y-56200771D01*
X64903446Y-56200771D02*
X64903446Y-56438866D01*
X64903446Y-56438866D02*
X64855827Y-56629342D01*
X64855827Y-56629342D02*
X64808208Y-56724580D01*
X64808208Y-56724580D02*
X64760589Y-56772200D01*
X64760589Y-56772200D02*
X64665351Y-56819819D01*
X64665351Y-56819819D02*
X64570113Y-56819819D01*
X64570113Y-56819819D02*
X64474875Y-56772200D01*
X64474875Y-56772200D02*
X64427256Y-56724580D01*
X64427256Y-56724580D02*
X64379637Y-56629342D01*
X64379637Y-56629342D02*
X64332018Y-56438866D01*
X64332018Y-56438866D02*
X64332018Y-56200771D01*
X64332018Y-56200771D02*
X64379637Y-56010295D01*
X64379637Y-56010295D02*
X64427256Y-55915057D01*
X64427256Y-55915057D02*
X64474875Y-55867438D01*
X64474875Y-55867438D02*
X64570113Y-55819819D01*
D10*
X81003014Y-82205639D02*
X80253014Y-82205639D01*
X81003014Y-81777068D02*
X80574442Y-82098496D01*
X80253014Y-81777068D02*
X80681585Y-82205639D01*
X81003014Y-81455639D02*
X80253014Y-81455639D01*
X81003014Y-80741353D02*
X81003014Y-81098496D01*
X81003014Y-81098496D02*
X80253014Y-81098496D01*
X81003014Y-80134210D02*
X81003014Y-80491353D01*
X81003014Y-80491353D02*
X80253014Y-80491353D01*
X80967300Y-79348495D02*
X81003014Y-79241353D01*
X81003014Y-79241353D02*
X81003014Y-79062781D01*
X81003014Y-79062781D02*
X80967300Y-78991353D01*
X80967300Y-78991353D02*
X80931585Y-78955638D01*
X80931585Y-78955638D02*
X80860157Y-78919924D01*
X80860157Y-78919924D02*
X80788728Y-78919924D01*
X80788728Y-78919924D02*
X80717300Y-78955638D01*
X80717300Y-78955638D02*
X80681585Y-78991353D01*
X80681585Y-78991353D02*
X80645871Y-79062781D01*
X80645871Y-79062781D02*
X80610157Y-79205638D01*
X80610157Y-79205638D02*
X80574442Y-79277067D01*
X80574442Y-79277067D02*
X80538728Y-79312781D01*
X80538728Y-79312781D02*
X80467300Y-79348495D01*
X80467300Y-79348495D02*
X80395871Y-79348495D01*
X80395871Y-79348495D02*
X80324442Y-79312781D01*
X80324442Y-79312781D02*
X80288728Y-79277067D01*
X80288728Y-79277067D02*
X80253014Y-79205638D01*
X80253014Y-79205638D02*
X80253014Y-79027067D01*
X80253014Y-79027067D02*
X80288728Y-78919924D01*
X80253014Y-78669924D02*
X81003014Y-78491352D01*
X81003014Y-78491352D02*
X80467300Y-78348495D01*
X80467300Y-78348495D02*
X81003014Y-78205638D01*
X81003014Y-78205638D02*
X80253014Y-78027067D01*
X81003014Y-77741352D02*
X80253014Y-77741352D01*
X80253014Y-77491352D02*
X80253014Y-77062781D01*
X81003014Y-77277066D02*
X80253014Y-77277066D01*
X80931585Y-76384209D02*
X80967300Y-76419923D01*
X80967300Y-76419923D02*
X81003014Y-76527066D01*
X81003014Y-76527066D02*
X81003014Y-76598494D01*
X81003014Y-76598494D02*
X80967300Y-76705637D01*
X80967300Y-76705637D02*
X80895871Y-76777066D01*
X80895871Y-76777066D02*
X80824442Y-76812780D01*
X80824442Y-76812780D02*
X80681585Y-76848494D01*
X80681585Y-76848494D02*
X80574442Y-76848494D01*
X80574442Y-76848494D02*
X80431585Y-76812780D01*
X80431585Y-76812780D02*
X80360157Y-76777066D01*
X80360157Y-76777066D02*
X80288728Y-76705637D01*
X80288728Y-76705637D02*
X80253014Y-76598494D01*
X80253014Y-76598494D02*
X80253014Y-76527066D01*
X80253014Y-76527066D02*
X80288728Y-76419923D01*
X80288728Y-76419923D02*
X80324442Y-76384209D01*
X81003014Y-76062780D02*
X80253014Y-76062780D01*
X80610157Y-76062780D02*
X80610157Y-75634209D01*
X81003014Y-75634209D02*
X80253014Y-75634209D01*
D12*
X58954819Y-52333333D02*
X59669104Y-52333333D01*
X59669104Y-52333333D02*
X59811961Y-52380952D01*
X59811961Y-52380952D02*
X59907200Y-52476190D01*
X59907200Y-52476190D02*
X59954819Y-52619047D01*
X59954819Y-52619047D02*
X59954819Y-52714285D01*
X59954819Y-51333333D02*
X59954819Y-51904761D01*
X59954819Y-51619047D02*
X58954819Y-51619047D01*
X58954819Y-51619047D02*
X59097676Y-51714285D01*
X59097676Y-51714285D02*
X59192914Y-51809523D01*
X59192914Y-51809523D02*
X59240533Y-51904761D01*
D13*
X59804318Y-77473332D02*
X60711461Y-77473332D01*
X60711461Y-77473332D02*
X60892889Y-77533809D01*
X60892889Y-77533809D02*
X61013842Y-77654761D01*
X61013842Y-77654761D02*
X61074318Y-77836190D01*
X61074318Y-77836190D02*
X61074318Y-77957142D01*
X59804318Y-76989523D02*
X59804318Y-76203332D01*
X59804318Y-76203332D02*
X60288127Y-76626666D01*
X60288127Y-76626666D02*
X60288127Y-76445237D01*
X60288127Y-76445237D02*
X60348603Y-76324285D01*
X60348603Y-76324285D02*
X60409080Y-76263809D01*
X60409080Y-76263809D02*
X60530032Y-76203332D01*
X60530032Y-76203332D02*
X60832413Y-76203332D01*
X60832413Y-76203332D02*
X60953365Y-76263809D01*
X60953365Y-76263809D02*
X61013842Y-76324285D01*
X61013842Y-76324285D02*
X61074318Y-76445237D01*
X61074318Y-76445237D02*
X61074318Y-76808094D01*
X61074318Y-76808094D02*
X61013842Y-76929047D01*
X61013842Y-76929047D02*
X60953365Y-76989523D01*
D12*
X88004819Y-84608333D02*
X88719104Y-84608333D01*
X88719104Y-84608333D02*
X88861961Y-84655952D01*
X88861961Y-84655952D02*
X88957200Y-84751190D01*
X88957200Y-84751190D02*
X89004819Y-84894047D01*
X89004819Y-84894047D02*
X89004819Y-84989285D01*
X88004819Y-83655952D02*
X88004819Y-84132142D01*
X88004819Y-84132142D02*
X88481009Y-84179761D01*
X88481009Y-84179761D02*
X88433390Y-84132142D01*
X88433390Y-84132142D02*
X88385771Y-84036904D01*
X88385771Y-84036904D02*
X88385771Y-83798809D01*
X88385771Y-83798809D02*
X88433390Y-83703571D01*
X88433390Y-83703571D02*
X88481009Y-83655952D01*
X88481009Y-83655952D02*
X88576247Y-83608333D01*
X88576247Y-83608333D02*
X88814342Y-83608333D01*
X88814342Y-83608333D02*
X88909580Y-83655952D01*
X88909580Y-83655952D02*
X88957200Y-83703571D01*
X88957200Y-83703571D02*
X89004819Y-83798809D01*
X89004819Y-83798809D02*
X89004819Y-84036904D01*
X89004819Y-84036904D02*
X88957200Y-84132142D01*
X88957200Y-84132142D02*
X88909580Y-84179761D01*
X90366666Y-76404819D02*
X90366666Y-77119104D01*
X90366666Y-77119104D02*
X90319047Y-77261961D01*
X90319047Y-77261961D02*
X90223809Y-77357200D01*
X90223809Y-77357200D02*
X90080952Y-77404819D01*
X90080952Y-77404819D02*
X89985714Y-77404819D01*
X91271428Y-76404819D02*
X91080952Y-76404819D01*
X91080952Y-76404819D02*
X90985714Y-76452438D01*
X90985714Y-76452438D02*
X90938095Y-76500057D01*
X90938095Y-76500057D02*
X90842857Y-76642914D01*
X90842857Y-76642914D02*
X90795238Y-76833390D01*
X90795238Y-76833390D02*
X90795238Y-77214342D01*
X90795238Y-77214342D02*
X90842857Y-77309580D01*
X90842857Y-77309580D02*
X90890476Y-77357200D01*
X90890476Y-77357200D02*
X90985714Y-77404819D01*
X90985714Y-77404819D02*
X91176190Y-77404819D01*
X91176190Y-77404819D02*
X91271428Y-77357200D01*
X91271428Y-77357200D02*
X91319047Y-77309580D01*
X91319047Y-77309580D02*
X91366666Y-77214342D01*
X91366666Y-77214342D02*
X91366666Y-76976247D01*
X91366666Y-76976247D02*
X91319047Y-76881009D01*
X91319047Y-76881009D02*
X91271428Y-76833390D01*
X91271428Y-76833390D02*
X91176190Y-76785771D01*
X91176190Y-76785771D02*
X90985714Y-76785771D01*
X90985714Y-76785771D02*
X90890476Y-76833390D01*
X90890476Y-76833390D02*
X90842857Y-76881009D01*
X90842857Y-76881009D02*
X90795238Y-76976247D01*
X54578095Y-55784819D02*
X54578095Y-56594342D01*
X54578095Y-56594342D02*
X54625714Y-56689580D01*
X54625714Y-56689580D02*
X54673333Y-56737200D01*
X54673333Y-56737200D02*
X54768571Y-56784819D01*
X54768571Y-56784819D02*
X54959047Y-56784819D01*
X54959047Y-56784819D02*
X55054285Y-56737200D01*
X55054285Y-56737200D02*
X55101904Y-56689580D01*
X55101904Y-56689580D02*
X55149523Y-56594342D01*
X55149523Y-56594342D02*
X55149523Y-55784819D01*
X55578095Y-55880057D02*
X55625714Y-55832438D01*
X55625714Y-55832438D02*
X55720952Y-55784819D01*
X55720952Y-55784819D02*
X55959047Y-55784819D01*
X55959047Y-55784819D02*
X56054285Y-55832438D01*
X56054285Y-55832438D02*
X56101904Y-55880057D01*
X56101904Y-55880057D02*
X56149523Y-55975295D01*
X56149523Y-55975295D02*
X56149523Y-56070533D01*
X56149523Y-56070533D02*
X56101904Y-56213390D01*
X56101904Y-56213390D02*
X55530476Y-56784819D01*
X55530476Y-56784819D02*
X56149523Y-56784819D01*
X72020033Y-69413333D02*
X71320033Y-69413333D01*
X71320033Y-69413333D02*
X71820033Y-69180000D01*
X71820033Y-69180000D02*
X71320033Y-68946666D01*
X71320033Y-68946666D02*
X72020033Y-68946666D01*
X72020033Y-68613333D02*
X71320033Y-68613333D01*
X72020033Y-68280000D02*
X71320033Y-68280000D01*
X71320033Y-68280000D02*
X71820033Y-68046667D01*
X71820033Y-68046667D02*
X71320033Y-67813333D01*
X71320033Y-67813333D02*
X72020033Y-67813333D01*
X71320033Y-67546667D02*
X72020033Y-67080000D01*
X71320033Y-67080000D02*
X72020033Y-67546667D01*
X72020033Y-66413333D02*
X71686700Y-66646666D01*
X72020033Y-66813333D02*
X71320033Y-66813333D01*
X71320033Y-66813333D02*
X71320033Y-66546666D01*
X71320033Y-66546666D02*
X71353366Y-66480000D01*
X71353366Y-66480000D02*
X71386700Y-66446666D01*
X71386700Y-66446666D02*
X71453366Y-66413333D01*
X71453366Y-66413333D02*
X71553366Y-66413333D01*
X71553366Y-66413333D02*
X71620033Y-66446666D01*
X71620033Y-66446666D02*
X71653366Y-66480000D01*
X71653366Y-66480000D02*
X71686700Y-66546666D01*
X71686700Y-66546666D02*
X71686700Y-66813333D01*
X71320033Y-66213333D02*
X71320033Y-65813333D01*
X72020033Y-66013333D02*
X71320033Y-66013333D01*
X72020033Y-65213333D02*
X72020033Y-65613333D01*
X72020033Y-65413333D02*
X71320033Y-65413333D01*
X71320033Y-65413333D02*
X71420033Y-65480000D01*
X71420033Y-65480000D02*
X71486700Y-65546667D01*
X71486700Y-65546667D02*
X71520033Y-65613333D01*
X71320033Y-64780000D02*
X71320033Y-64713333D01*
X71320033Y-64713333D02*
X71353366Y-64646666D01*
X71353366Y-64646666D02*
X71386700Y-64613333D01*
X71386700Y-64613333D02*
X71453366Y-64580000D01*
X71453366Y-64580000D02*
X71586700Y-64546666D01*
X71586700Y-64546666D02*
X71753366Y-64546666D01*
X71753366Y-64546666D02*
X71886700Y-64580000D01*
X71886700Y-64580000D02*
X71953366Y-64613333D01*
X71953366Y-64613333D02*
X71986700Y-64646666D01*
X71986700Y-64646666D02*
X72020033Y-64713333D01*
X72020033Y-64713333D02*
X72020033Y-64780000D01*
X72020033Y-64780000D02*
X71986700Y-64846666D01*
X71986700Y-64846666D02*
X71953366Y-64880000D01*
X71953366Y-64880000D02*
X71886700Y-64913333D01*
X71886700Y-64913333D02*
X71753366Y-64946666D01*
X71753366Y-64946666D02*
X71586700Y-64946666D01*
X71586700Y-64946666D02*
X71453366Y-64913333D01*
X71453366Y-64913333D02*
X71386700Y-64880000D01*
X71386700Y-64880000D02*
X71353366Y-64846666D01*
X71353366Y-64846666D02*
X71320033Y-64780000D01*
X71320033Y-63946666D02*
X71320033Y-64079999D01*
X71320033Y-64079999D02*
X71353366Y-64146666D01*
X71353366Y-64146666D02*
X71386700Y-64179999D01*
X71386700Y-64179999D02*
X71486700Y-64246666D01*
X71486700Y-64246666D02*
X71620033Y-64279999D01*
X71620033Y-64279999D02*
X71886700Y-64279999D01*
X71886700Y-64279999D02*
X71953366Y-64246666D01*
X71953366Y-64246666D02*
X71986700Y-64213333D01*
X71986700Y-64213333D02*
X72020033Y-64146666D01*
X72020033Y-64146666D02*
X72020033Y-64013333D01*
X72020033Y-64013333D02*
X71986700Y-63946666D01*
X71986700Y-63946666D02*
X71953366Y-63913333D01*
X71953366Y-63913333D02*
X71886700Y-63879999D01*
X71886700Y-63879999D02*
X71720033Y-63879999D01*
X71720033Y-63879999D02*
X71653366Y-63913333D01*
X71653366Y-63913333D02*
X71620033Y-63946666D01*
X71620033Y-63946666D02*
X71586700Y-64013333D01*
X71586700Y-64013333D02*
X71586700Y-64146666D01*
X71586700Y-64146666D02*
X71620033Y-64213333D01*
X71620033Y-64213333D02*
X71653366Y-64246666D01*
X71653366Y-64246666D02*
X71720033Y-64279999D01*
X71386700Y-63613332D02*
X71353366Y-63579999D01*
X71353366Y-63579999D02*
X71320033Y-63513332D01*
X71320033Y-63513332D02*
X71320033Y-63346666D01*
X71320033Y-63346666D02*
X71353366Y-63279999D01*
X71353366Y-63279999D02*
X71386700Y-63246666D01*
X71386700Y-63246666D02*
X71453366Y-63213332D01*
X71453366Y-63213332D02*
X71520033Y-63213332D01*
X71520033Y-63213332D02*
X71620033Y-63246666D01*
X71620033Y-63246666D02*
X72020033Y-63646666D01*
X72020033Y-63646666D02*
X72020033Y-63213332D01*
X73544033Y-67730000D02*
X72844033Y-67730000D01*
X72844033Y-67730000D02*
X72844033Y-67563333D01*
X72844033Y-67563333D02*
X72877366Y-67463333D01*
X72877366Y-67463333D02*
X72944033Y-67396667D01*
X72944033Y-67396667D02*
X73010700Y-67363333D01*
X73010700Y-67363333D02*
X73144033Y-67330000D01*
X73144033Y-67330000D02*
X73244033Y-67330000D01*
X73244033Y-67330000D02*
X73377366Y-67363333D01*
X73377366Y-67363333D02*
X73444033Y-67396667D01*
X73444033Y-67396667D02*
X73510700Y-67463333D01*
X73510700Y-67463333D02*
X73544033Y-67563333D01*
X73544033Y-67563333D02*
X73544033Y-67730000D01*
X72844033Y-67130000D02*
X73544033Y-66896667D01*
X73544033Y-66896667D02*
X72844033Y-66663333D01*
X73544033Y-66096667D02*
X73544033Y-66430000D01*
X73544033Y-66430000D02*
X72844033Y-66430000D01*
X72844033Y-65563333D02*
X72844033Y-65696666D01*
X72844033Y-65696666D02*
X72877366Y-65763333D01*
X72877366Y-65763333D02*
X72910700Y-65796666D01*
X72910700Y-65796666D02*
X73010700Y-65863333D01*
X73010700Y-65863333D02*
X73144033Y-65896666D01*
X73144033Y-65896666D02*
X73410700Y-65896666D01*
X73410700Y-65896666D02*
X73477366Y-65863333D01*
X73477366Y-65863333D02*
X73510700Y-65830000D01*
X73510700Y-65830000D02*
X73544033Y-65763333D01*
X73544033Y-65763333D02*
X73544033Y-65630000D01*
X73544033Y-65630000D02*
X73510700Y-65563333D01*
X73510700Y-65563333D02*
X73477366Y-65530000D01*
X73477366Y-65530000D02*
X73410700Y-65496666D01*
X73410700Y-65496666D02*
X73244033Y-65496666D01*
X73244033Y-65496666D02*
X73177366Y-65530000D01*
X73177366Y-65530000D02*
X73144033Y-65563333D01*
X73144033Y-65563333D02*
X73110700Y-65630000D01*
X73110700Y-65630000D02*
X73110700Y-65763333D01*
X73110700Y-65763333D02*
X73144033Y-65830000D01*
X73144033Y-65830000D02*
X73177366Y-65863333D01*
X73177366Y-65863333D02*
X73244033Y-65896666D01*
X73344033Y-65229999D02*
X73344033Y-64896666D01*
X73544033Y-65296666D02*
X72844033Y-65063333D01*
X72844033Y-65063333D02*
X73544033Y-64829999D01*
D14*
%TO.C,J1*%
X63000000Y-53060000D02*
X81060000Y-53060000D01*
X63000000Y-53060000D02*
X63000000Y-50940000D01*
X81060000Y-53060000D02*
X81060000Y-50940000D01*
X60940000Y-52000000D02*
X60940000Y-50940000D01*
X60940000Y-50940000D02*
X62000000Y-50940000D01*
X63000000Y-50940000D02*
X81060000Y-50940000D01*
D10*
%TO.C,J3*%
X58435000Y-76660000D02*
X58435000Y-84660000D01*
X52935000Y-76660000D02*
X58435000Y-76660000D01*
D11*
X52185000Y-83060000D02*
X52185000Y-83060000D01*
X52185000Y-83260000D02*
X52185000Y-83260000D01*
D10*
X58435000Y-84660000D02*
X52935000Y-84660000D01*
X52935000Y-84660000D02*
X52935000Y-76660000D01*
D11*
X52185000Y-83260000D02*
G75*
G03*
X52185000Y-83060000I0J100000D01*
G01*
X52185000Y-83060000D02*
G75*
G03*
X52185000Y-83260000I0J-100000D01*
G01*
D14*
%TO.C,J5*%
X85050000Y-83215000D02*
X76990000Y-83215000D01*
X85050000Y-83215000D02*
X85050000Y-85335000D01*
X76990000Y-83215000D02*
X76990000Y-85335000D01*
X87110000Y-84275000D02*
X87110000Y-85335000D01*
X87110000Y-85335000D02*
X86050000Y-85335000D01*
X85050000Y-85335000D02*
X76990000Y-85335000D01*
D15*
%TO.C,J6*%
X88350000Y-77025004D02*
X82850001Y-77025004D01*
X82850001Y-77025004D02*
X82850001Y-81274996D01*
X89366000Y-77890001D02*
X88604000Y-78525001D01*
X88604000Y-78525001D02*
X89366000Y-79160001D01*
X89366000Y-79160001D02*
X89366000Y-77890001D01*
X88350000Y-81274996D02*
X88350000Y-77025004D01*
X82850001Y-81274996D02*
X88350000Y-81274996D01*
D12*
%TO.C,U2*%
X52400000Y-62520000D02*
X53670000Y-62520000D01*
X52400000Y-70140000D02*
X52400000Y-62520000D01*
X53670000Y-57440000D02*
X89230000Y-57440000D01*
X53670000Y-70140000D02*
X52400000Y-70140000D01*
X53670000Y-75220000D02*
X53670000Y-57440000D01*
X58750000Y-62520000D02*
X53670000Y-62520000D01*
X58750000Y-70140000D02*
X53670000Y-70140000D01*
X58750000Y-70140000D02*
X58750000Y-62520000D01*
X65735000Y-61250000D02*
X65735000Y-71410000D01*
X75895000Y-61250000D02*
X65735000Y-61250000D01*
X75895000Y-71410000D02*
X65735000Y-71410000D01*
X75895000Y-71410000D02*
X75895000Y-61250000D01*
X76530000Y-61250000D02*
X79070000Y-61250000D01*
X76530000Y-64425000D02*
X76530000Y-61250000D01*
X79070000Y-61250000D02*
X79070000Y-64425000D01*
X79070000Y-64425000D02*
X76530000Y-64425000D01*
X81610000Y-65060000D02*
X86182000Y-65060000D01*
X82610000Y-67600000D02*
X82610000Y-65060000D01*
X86182000Y-65060000D02*
X86182000Y-67600000D01*
X86182000Y-67600000D02*
X81610000Y-67600000D01*
X89230000Y-57440000D02*
X89230000Y-75220000D01*
X89230000Y-75220000D02*
X53670000Y-75220000D01*
D10*
X68021000Y-66584000D02*
X67767000Y-66838000D01*
X67513000Y-66457000D01*
X67767000Y-66203000D01*
X68021000Y-66584000D01*
G36*
X68021000Y-66584000D02*
G01*
X67767000Y-66838000D01*
X67513000Y-66457000D01*
X67767000Y-66203000D01*
X68021000Y-66584000D01*
G37*
X68402000Y-66203000D02*
X68148000Y-66457000D01*
X67894000Y-66076000D01*
X68148000Y-65822000D01*
X68402000Y-66203000D01*
G36*
X68402000Y-66203000D02*
G01*
X68148000Y-66457000D01*
X67894000Y-66076000D01*
X68148000Y-65822000D01*
X68402000Y-66203000D01*
G37*
X68783000Y-65822000D02*
X68529000Y-66076000D01*
X68275000Y-65695000D01*
X68529000Y-65441000D01*
X68783000Y-65822000D01*
G36*
X68783000Y-65822000D02*
G01*
X68529000Y-66076000D01*
X68275000Y-65695000D01*
X68529000Y-65441000D01*
X68783000Y-65822000D01*
G37*
X69164000Y-66330000D02*
X68910000Y-66584000D01*
X68656000Y-66203000D01*
X68910000Y-65949000D01*
X69164000Y-66330000D01*
G36*
X69164000Y-66330000D02*
G01*
X68910000Y-66584000D01*
X68656000Y-66203000D01*
X68910000Y-65949000D01*
X69164000Y-66330000D01*
G37*
X69545000Y-65949000D02*
X69291000Y-66203000D01*
X69037000Y-65822000D01*
X69291000Y-65568000D01*
X69545000Y-65949000D01*
G36*
X69545000Y-65949000D02*
G01*
X69291000Y-66203000D01*
X69037000Y-65822000D01*
X69291000Y-65568000D01*
X69545000Y-65949000D01*
G37*
X69545000Y-66838000D02*
X69291000Y-67092000D01*
X69037000Y-66711000D01*
X69291000Y-66457000D01*
X69545000Y-66838000D01*
G36*
X69545000Y-66838000D02*
G01*
X69291000Y-67092000D01*
X69037000Y-66711000D01*
X69291000Y-66457000D01*
X69545000Y-66838000D01*
G37*
X69926000Y-66457000D02*
X69672000Y-66711000D01*
X69418000Y-66330000D01*
X69672000Y-66076000D01*
X69926000Y-66457000D01*
G36*
X69926000Y-66457000D02*
G01*
X69672000Y-66711000D01*
X69418000Y-66330000D01*
X69672000Y-66076000D01*
X69926000Y-66457000D01*
G37*
X70307000Y-66965000D02*
X70053000Y-67219000D01*
X69799000Y-66838000D01*
X70053000Y-66584000D01*
X70307000Y-66965000D01*
G36*
X70307000Y-66965000D02*
G01*
X70053000Y-67219000D01*
X69799000Y-66838000D01*
X70053000Y-66584000D01*
X70307000Y-66965000D01*
G37*
%TD*%
M02*
