M48
; DRILL file {KiCad 7.0.10} date Tue Mar 12 14:45:59 2024
; FORMAT={-:-/ absolute / inch / decimal}
; #@! TF.CreationDate,2024-03-12T14:45:59-04:00
; #@! TF.GenerationSoftware,Kicad,Pcbnew,7.0.10
; #@! TF.FileFunction,MixedPlating,1,2
FMAT,2
INCH
; #@! TA.AperFunction,Plated,PTH,ViaDrill
T1C0.0157
; #@! TA.AperFunction,Plated,PTH,ComponentDrill
T2C0.0197
; #@! TA.AperFunction,Plated,PTH,ComponentDrill
T3C0.0217
; #@! TA.AperFunction,Plated,PTH,ComponentDrill
T4C0.0276
; #@! TA.AperFunction,Plated,PTH,ComponentDrill
T5C0.0315
; #@! TA.AperFunction,Plated,PTH,ComponentDrill
T6C0.0433
; #@! TA.AperFunction,Plated,PTH,ComponentDrill
T7C0.0984
%
G90
G05
T1
X2.4941Y-3.3026
T2
X3.437Y-3.0915
X3.437Y-3.1407
T3
X2.1254Y-3.0772
X2.1254Y-3.1264
X2.1254Y-3.1756
X2.1254Y-3.2248
X2.1254Y-3.274
T4
X2.3197Y-3.4573
X2.3197Y-3.5073
X2.3697Y-3.4573
X2.3697Y-3.5073
X2.4197Y-3.4573
X2.4197Y-3.5073
X2.4697Y-3.4573
X2.4697Y-3.5073
X2.5197Y-3.4573
X2.5197Y-3.5073
X2.5697Y-3.4573
X2.5697Y-3.5073
X2.6197Y-3.4573
X2.6197Y-3.5073
X2.6697Y-3.4573
X2.6697Y-3.5073
X2.7197Y-3.4573
X2.7197Y-3.5073
X2.7697Y-3.4573
X2.7697Y-3.5073
X2.8197Y-3.4573
X2.8197Y-3.5073
X2.8697Y-3.4573
X2.8697Y-3.5073
X2.9197Y-3.4573
X2.9197Y-3.5073
X2.9697Y-3.4573
X2.9697Y-3.5073
X3.0197Y-3.4573
X3.0197Y-3.5073
X3.0697Y-3.4573
X3.0697Y-3.5073
X3.1197Y-3.4573
X3.1197Y-3.5073
X3.1697Y-3.4573
X3.1697Y-3.5073
X3.2197Y-3.4573
X3.2197Y-3.5073
X3.2697Y-3.4573
X3.2697Y-3.5073
T5
X2.4409Y-2.0472
X2.5197Y-2.0472
X2.5984Y-2.0472
X2.6772Y-2.0472
X2.7559Y-2.0472
X2.8346Y-2.0472
X2.9134Y-2.0472
X2.9921Y-2.0472
X3.0709Y-2.0472
X3.0728Y-3.3179
X3.1496Y-2.0472
X3.1516Y-3.3179
X3.2303Y-3.3179
X3.3091Y-3.3179
X3.3878Y-3.3179
T6
X2.163Y-2.3114
X2.163Y-2.9114
X2.263Y-2.3114
X2.263Y-2.4114
X2.263Y-2.9114
X2.363Y-2.3114
X2.363Y-2.9114
X2.463Y-2.3114
X2.463Y-2.9114
X2.563Y-2.3114
X2.563Y-2.9114
X2.663Y-2.3114
X2.663Y-2.9114
X2.763Y-2.3114
X2.763Y-2.9114
X2.863Y-2.3114
X2.863Y-2.9114
X2.963Y-2.3114
X2.963Y-2.9114
X3.063Y-2.3114
X3.063Y-2.9114
X3.163Y-2.3114
X3.163Y-2.9114
X3.263Y-2.3114
X3.263Y-2.9114
X3.363Y-2.3114
X3.363Y-2.9114
X3.463Y-2.3114
X3.463Y-2.4114
X3.463Y-2.5114
X3.463Y-2.6114
X3.463Y-2.7114
X3.463Y-2.8114
X3.463Y-2.9114
T7
X2.0866Y-2.0866
X2.0866Y-3.5039
X3.5039Y-2.0866
X3.5039Y-3.5039
M30
