%TF.GenerationSoftware,KiCad,Pcbnew,7.0.10*%
%TF.CreationDate,2024-04-17T22:45:22-04:00*%
%TF.ProjectId,pv1,7076312e-6b69-4636-9164-5f7063625858,rev?*%
%TF.SameCoordinates,Original*%
%TF.FileFunction,Legend,Bot*%
%TF.FilePolarity,Positive*%
%FSLAX46Y46*%
G04 Gerber Fmt 4.6, Leading zero omitted, Abs format (unit mm)*
G04 Created by KiCad (PCBNEW 7.0.10) date 2024-04-17 22:45:22*
%MOMM*%
%LPD*%
G01*
G04 APERTURE LIST*
%ADD10C,0.150000*%
%ADD11C,0.120000*%
G04 APERTURE END LIST*
D10*
X128799999Y-101759819D02*
X128228571Y-101759819D01*
X128514285Y-102759819D02*
X128514285Y-101759819D01*
X127895237Y-102759819D02*
X127895237Y-101759819D01*
X126895238Y-101807438D02*
X126990476Y-101759819D01*
X126990476Y-101759819D02*
X127133333Y-101759819D01*
X127133333Y-101759819D02*
X127276190Y-101807438D01*
X127276190Y-101807438D02*
X127371428Y-101902676D01*
X127371428Y-101902676D02*
X127419047Y-101997914D01*
X127419047Y-101997914D02*
X127466666Y-102188390D01*
X127466666Y-102188390D02*
X127466666Y-102331247D01*
X127466666Y-102331247D02*
X127419047Y-102521723D01*
X127419047Y-102521723D02*
X127371428Y-102616961D01*
X127371428Y-102616961D02*
X127276190Y-102712200D01*
X127276190Y-102712200D02*
X127133333Y-102759819D01*
X127133333Y-102759819D02*
X127038095Y-102759819D01*
X127038095Y-102759819D02*
X126895238Y-102712200D01*
X126895238Y-102712200D02*
X126847619Y-102664580D01*
X126847619Y-102664580D02*
X126847619Y-102331247D01*
X126847619Y-102331247D02*
X127038095Y-102331247D01*
X126419047Y-102236009D02*
X126085714Y-102236009D01*
X125942857Y-102759819D02*
X126419047Y-102759819D01*
X126419047Y-102759819D02*
X126419047Y-101759819D01*
X126419047Y-101759819D02*
X125942857Y-101759819D01*
X124942857Y-102759819D02*
X125276190Y-102283628D01*
X125514285Y-102759819D02*
X125514285Y-101759819D01*
X125514285Y-101759819D02*
X125133333Y-101759819D01*
X125133333Y-101759819D02*
X125038095Y-101807438D01*
X125038095Y-101807438D02*
X124990476Y-101855057D01*
X124990476Y-101855057D02*
X124942857Y-101950295D01*
X124942857Y-101950295D02*
X124942857Y-102093152D01*
X124942857Y-102093152D02*
X124990476Y-102188390D01*
X124990476Y-102188390D02*
X125038095Y-102236009D01*
X125038095Y-102236009D02*
X125133333Y-102283628D01*
X125133333Y-102283628D02*
X125514285Y-102283628D01*
X123942857Y-102664580D02*
X123990476Y-102712200D01*
X123990476Y-102712200D02*
X124133333Y-102759819D01*
X124133333Y-102759819D02*
X124228571Y-102759819D01*
X124228571Y-102759819D02*
X124371428Y-102712200D01*
X124371428Y-102712200D02*
X124466666Y-102616961D01*
X124466666Y-102616961D02*
X124514285Y-102521723D01*
X124514285Y-102521723D02*
X124561904Y-102331247D01*
X124561904Y-102331247D02*
X124561904Y-102188390D01*
X124561904Y-102188390D02*
X124514285Y-101997914D01*
X124514285Y-101997914D02*
X124466666Y-101902676D01*
X124466666Y-101902676D02*
X124371428Y-101807438D01*
X124371428Y-101807438D02*
X124228571Y-101759819D01*
X124228571Y-101759819D02*
X124133333Y-101759819D01*
X124133333Y-101759819D02*
X123990476Y-101807438D01*
X123990476Y-101807438D02*
X123942857Y-101855057D01*
X123514285Y-101759819D02*
X123514285Y-102569342D01*
X123514285Y-102569342D02*
X123466666Y-102664580D01*
X123466666Y-102664580D02*
X123419047Y-102712200D01*
X123419047Y-102712200D02*
X123323809Y-102759819D01*
X123323809Y-102759819D02*
X123133333Y-102759819D01*
X123133333Y-102759819D02*
X123038095Y-102712200D01*
X123038095Y-102712200D02*
X122990476Y-102664580D01*
X122990476Y-102664580D02*
X122942857Y-102569342D01*
X122942857Y-102569342D02*
X122942857Y-101759819D01*
X122133333Y-102236009D02*
X121990476Y-102283628D01*
X121990476Y-102283628D02*
X121942857Y-102331247D01*
X121942857Y-102331247D02*
X121895238Y-102426485D01*
X121895238Y-102426485D02*
X121895238Y-102569342D01*
X121895238Y-102569342D02*
X121942857Y-102664580D01*
X121942857Y-102664580D02*
X121990476Y-102712200D01*
X121990476Y-102712200D02*
X122085714Y-102759819D01*
X122085714Y-102759819D02*
X122466666Y-102759819D01*
X122466666Y-102759819D02*
X122466666Y-101759819D01*
X122466666Y-101759819D02*
X122133333Y-101759819D01*
X122133333Y-101759819D02*
X122038095Y-101807438D01*
X122038095Y-101807438D02*
X121990476Y-101855057D01*
X121990476Y-101855057D02*
X121942857Y-101950295D01*
X121942857Y-101950295D02*
X121942857Y-102045533D01*
X121942857Y-102045533D02*
X121990476Y-102140771D01*
X121990476Y-102140771D02*
X122038095Y-102188390D01*
X122038095Y-102188390D02*
X122133333Y-102236009D01*
X122133333Y-102236009D02*
X122466666Y-102236009D01*
X128419047Y-104369819D02*
X128419047Y-103369819D01*
X128419047Y-103369819D02*
X128038095Y-103369819D01*
X128038095Y-103369819D02*
X127942857Y-103417438D01*
X127942857Y-103417438D02*
X127895238Y-103465057D01*
X127895238Y-103465057D02*
X127847619Y-103560295D01*
X127847619Y-103560295D02*
X127847619Y-103703152D01*
X127847619Y-103703152D02*
X127895238Y-103798390D01*
X127895238Y-103798390D02*
X127942857Y-103846009D01*
X127942857Y-103846009D02*
X128038095Y-103893628D01*
X128038095Y-103893628D02*
X128419047Y-103893628D01*
X127561904Y-103369819D02*
X127228571Y-104369819D01*
X127228571Y-104369819D02*
X126895238Y-103369819D01*
X126038095Y-104369819D02*
X126609523Y-104369819D01*
X126323809Y-104369819D02*
X126323809Y-103369819D01*
X126323809Y-103369819D02*
X126419047Y-103512676D01*
X126419047Y-103512676D02*
X126514285Y-103607914D01*
X126514285Y-103607914D02*
X126609523Y-103655533D01*
X124942856Y-103703152D02*
X124704761Y-104369819D01*
X124704761Y-104369819D02*
X124466666Y-103703152D01*
X123561904Y-104369819D02*
X124133332Y-104369819D01*
X123847618Y-104369819D02*
X123847618Y-103369819D01*
X123847618Y-103369819D02*
X123942856Y-103512676D01*
X123942856Y-103512676D02*
X124038094Y-103607914D01*
X124038094Y-103607914D02*
X124133332Y-103655533D01*
X123133332Y-104274580D02*
X123085713Y-104322200D01*
X123085713Y-104322200D02*
X123133332Y-104369819D01*
X123133332Y-104369819D02*
X123180951Y-104322200D01*
X123180951Y-104322200D02*
X123133332Y-104274580D01*
X123133332Y-104274580D02*
X123133332Y-104369819D01*
X122466666Y-103369819D02*
X122371428Y-103369819D01*
X122371428Y-103369819D02*
X122276190Y-103417438D01*
X122276190Y-103417438D02*
X122228571Y-103465057D01*
X122228571Y-103465057D02*
X122180952Y-103560295D01*
X122180952Y-103560295D02*
X122133333Y-103750771D01*
X122133333Y-103750771D02*
X122133333Y-103988866D01*
X122133333Y-103988866D02*
X122180952Y-104179342D01*
X122180952Y-104179342D02*
X122228571Y-104274580D01*
X122228571Y-104274580D02*
X122276190Y-104322200D01*
X122276190Y-104322200D02*
X122371428Y-104369819D01*
X122371428Y-104369819D02*
X122466666Y-104369819D01*
X122466666Y-104369819D02*
X122561904Y-104322200D01*
X122561904Y-104322200D02*
X122609523Y-104274580D01*
X122609523Y-104274580D02*
X122657142Y-104179342D01*
X122657142Y-104179342D02*
X122704761Y-103988866D01*
X122704761Y-103988866D02*
X122704761Y-103750771D01*
X122704761Y-103750771D02*
X122657142Y-103560295D01*
X122657142Y-103560295D02*
X122609523Y-103465057D01*
X122609523Y-103465057D02*
X122561904Y-103417438D01*
X122561904Y-103417438D02*
X122466666Y-103369819D01*
D11*
%TO.C,J1*%
X141940000Y-132585000D02*
X141940000Y-130350000D01*
X147660000Y-132585000D02*
X141940000Y-132585000D01*
X147360000Y-131515000D02*
X147660000Y-131515000D01*
X147660000Y-131515000D02*
X147660000Y-132585000D01*
X147650000Y-131225000D02*
X147950000Y-131225000D01*
X147950000Y-131225000D02*
X147950000Y-131725000D01*
X147360000Y-130350000D02*
X147360000Y-131515000D01*
X147360000Y-130350000D02*
X147360000Y-129185000D01*
X147360000Y-129185000D02*
X147660000Y-129185000D01*
X147660000Y-129185000D02*
X147660000Y-128115000D01*
X141940000Y-128115000D02*
X141940000Y-130350000D01*
X147660000Y-128115000D02*
X141940000Y-128115000D01*
%TD*%
M02*
