%TF.GenerationSoftware,KiCad,Pcbnew,7.0.10*%
%TF.CreationDate,2024-04-17T22:45:22-04:00*%
%TF.ProjectId,pv1,7076312e-6b69-4636-9164-5f7063625858,rev?*%
%TF.SameCoordinates,Original*%
%TF.FileFunction,Legend,Top*%
%TF.FilePolarity,Positive*%
%FSLAX46Y46*%
G04 Gerber Fmt 4.6, Leading zero omitted, Abs format (unit mm)*
G04 Created by KiCad (PCBNEW 7.0.10) date 2024-04-17 22:45:22*
%MOMM*%
%LPD*%
G01*
G04 APERTURE LIST*
%ADD10C,0.100000*%
%ADD11C,0.200000*%
G04 APERTURE END LIST*
D10*
X146961905Y-129257419D02*
X146961905Y-128257419D01*
X146961905Y-128257419D02*
X147200000Y-128257419D01*
X147200000Y-128257419D02*
X147342857Y-128305038D01*
X147342857Y-128305038D02*
X147438095Y-128400276D01*
X147438095Y-128400276D02*
X147485714Y-128495514D01*
X147485714Y-128495514D02*
X147533333Y-128685990D01*
X147533333Y-128685990D02*
X147533333Y-128828847D01*
X147533333Y-128828847D02*
X147485714Y-129019323D01*
X147485714Y-129019323D02*
X147438095Y-129114561D01*
X147438095Y-129114561D02*
X147342857Y-129209800D01*
X147342857Y-129209800D02*
X147200000Y-129257419D01*
X147200000Y-129257419D02*
X146961905Y-129257419D01*
X148485714Y-129257419D02*
X147914286Y-129257419D01*
X148200000Y-129257419D02*
X148200000Y-128257419D01*
X148200000Y-128257419D02*
X148104762Y-128400276D01*
X148104762Y-128400276D02*
X148009524Y-128495514D01*
X148009524Y-128495514D02*
X147914286Y-128543133D01*
D11*
%TO.C,PV1*%
X111450000Y-115590000D02*
X113990000Y-115590000D01*
X112720000Y-114320000D02*
X112720000Y-116860000D01*
X140660000Y-106700000D02*
X143200000Y-106700000D01*
D10*
X104900000Y-100150000D02*
X149800000Y-100150000D01*
X149800000Y-100150000D02*
X149800000Y-122050000D01*
X149800000Y-122050000D02*
X104900000Y-122050000D01*
X104900000Y-122050000D02*
X104900000Y-100150000D01*
%TO.C,D1*%
X148000000Y-127650000D02*
X148000000Y-127650000D01*
X148000000Y-127550000D02*
X148000000Y-127550000D01*
X147000000Y-126300000D02*
X147000000Y-124350000D01*
X148400000Y-126250000D02*
X148400000Y-124450000D01*
X148000000Y-127550000D02*
G75*
G03*
X148000000Y-127650000I0J-50000D01*
G01*
X148000000Y-127650000D02*
G75*
G03*
X148000000Y-127550000I0J50000D01*
G01*
D11*
%TO.C,PV2*%
X106750000Y-138890000D02*
X109290000Y-138890000D01*
X108020000Y-137620000D02*
X108020000Y-140160000D01*
X135960000Y-130000000D02*
X138500000Y-130000000D01*
D10*
X100200000Y-123450000D02*
X145100000Y-123450000D01*
X145100000Y-123450000D02*
X145100000Y-145350000D01*
X145100000Y-145350000D02*
X100200000Y-145350000D01*
X100200000Y-145350000D02*
X100200000Y-123450000D01*
%TD*%
M02*
