%TF.GenerationSoftware,KiCad,Pcbnew,7.0.10*%
%TF.CreationDate,2024-03-21T17:39:44-04:00*%
%TF.ProjectId,obc-peripherals,6f62632d-7065-4726-9970-686572616c73,rev?*%
%TF.SameCoordinates,Original*%
%TF.FileFunction,Soldermask,Top*%
%TF.FilePolarity,Negative*%
%FSLAX46Y46*%
G04 Gerber Fmt 4.6, Leading zero omitted, Abs format (unit mm)*
G04 Created by KiCad (PCBNEW 7.0.10) date 2024-03-21 17:39:44*
%MOMM*%
%LPD*%
G01*
G04 APERTURE LIST*
%ADD10C,5.000000*%
%ADD11R,1.350000X1.350000*%
%ADD12O,1.350000X1.350000*%
%ADD13C,1.600000*%
%ADD14C,3.810000*%
G04 APERTURE END LIST*
D10*
%TO.C,H4*%
X136000000Y-89000000D03*
%TD*%
D11*
%TO.C,J2*%
X109000000Y-52500000D03*
D12*
X111000000Y-52500000D03*
X113000000Y-52500000D03*
X115000000Y-52500000D03*
X117000000Y-52500000D03*
X119000000Y-52500000D03*
X121000000Y-52500000D03*
X123000000Y-52500000D03*
X125000000Y-52500000D03*
X127000000Y-52500000D03*
%TD*%
D11*
%TO.C,J6*%
X133020000Y-84250000D03*
D12*
X131020000Y-84250000D03*
X129020000Y-84250000D03*
X127020000Y-84250000D03*
X125020000Y-84250000D03*
%TD*%
D10*
%TO.C,H2*%
X100000000Y-53000000D03*
%TD*%
%TO.C,H1*%
X136000000Y-53000000D03*
%TD*%
%TO.C,H3*%
X100040000Y-88950000D03*
%TD*%
D13*
%TO.C,U3*%
X118520000Y-59050000D03*
X118520000Y-61590000D03*
X118520000Y-64130000D03*
X118520000Y-66670000D03*
X118520000Y-69210000D03*
X118520000Y-71750000D03*
X118520000Y-74290000D03*
X118520000Y-76830000D03*
X118520000Y-79370000D03*
D14*
X136300000Y-59050000D03*
X136300000Y-79370000D03*
%TD*%
D13*
%TO.C,U1*%
X99800000Y-66590000D03*
X99800000Y-69130000D03*
X99800000Y-71670000D03*
X99800000Y-74210000D03*
X99800000Y-76750000D03*
X99800000Y-79290000D03*
X112500000Y-66590000D03*
X112500000Y-69130000D03*
X112500000Y-71670000D03*
X112500000Y-74210000D03*
X112500000Y-76750000D03*
D14*
X112500000Y-62780000D03*
X112500000Y-83100000D03*
X99800000Y-83100000D03*
X99800000Y-62780000D03*
%TD*%
M02*
