M48
; DRILL file {KiCad 7.0.10} date Thu Mar 21 17:39:48 2024
; FORMAT={-:-/ absolute / inch / decimal}
; #@! TF.CreationDate,2024-03-21T17:39:48-04:00
; #@! TF.GenerationSoftware,Kicad,Pcbnew,7.0.10
; #@! TF.FileFunction,MixedPlating,1,2
FMAT,2
INCH
; #@! TA.AperFunction,Plated,PTH,ViaDrill
T1C0.0157
; #@! TA.AperFunction,Plated,PTH,ComponentDrill
T2C0.0315
; #@! TA.AperFunction,Plated,PTH,ComponentDrill
T3C0.0433
; #@! TA.AperFunction,Plated,PTH,ComponentDrill
T4C0.0984
; #@! TA.AperFunction,Plated,PTH,ComponentDrill
T5C0.1000
%
G90
G05
T1
X4.0827Y-2.5965
X4.2205Y-2.4783
T2
X4.2913Y-2.0669
X4.3701Y-2.0669
X4.4488Y-2.0669
X4.5276Y-2.0669
X4.6063Y-2.0669
X4.685Y-2.0669
X4.7638Y-2.0669
X4.8425Y-2.0669
X4.9213Y-2.0669
X4.922Y-3.3169
X5.0Y-2.0669
X5.0008Y-3.3169
X5.0795Y-3.3169
X5.1583Y-3.3169
X5.237Y-3.3169
T3
X3.9291Y-2.6217
X3.9291Y-2.7217
X3.9291Y-2.8217
X3.9291Y-2.9217
X3.9291Y-3.0217
X3.9291Y-3.1217
X4.4291Y-2.6217
X4.4291Y-2.7217
X4.4291Y-2.8217
X4.4291Y-2.9217
X4.4291Y-3.0217
X4.6661Y-2.3248
X4.6661Y-2.4248
X4.6661Y-2.5248
X4.6661Y-2.6248
X4.6661Y-2.7248
X4.6661Y-2.8248
X4.6661Y-2.9248
X4.6661Y-3.0248
X4.6661Y-3.1248
T4
X3.937Y-2.0866
X3.9386Y-3.502
X5.3543Y-2.0866
X5.3543Y-3.5039
T5
X3.9291Y-2.4717
X3.9291Y-3.2717
X4.4291Y-2.4717
X4.4291Y-3.2717
X5.3661Y-2.3248
X5.3661Y-3.1248
M30
