%TF.GenerationSoftware,KiCad,Pcbnew,7.0.10*%
%TF.CreationDate,2024-03-21T17:39:44-04:00*%
%TF.ProjectId,obc-peripherals,6f62632d-7065-4726-9970-686572616c73,rev?*%
%TF.SameCoordinates,Original*%
%TF.FileFunction,Legend,Bot*%
%TF.FilePolarity,Positive*%
%FSLAX46Y46*%
G04 Gerber Fmt 4.6, Leading zero omitted, Abs format (unit mm)*
G04 Created by KiCad (PCBNEW 7.0.10) date 2024-03-21 17:39:44*
%MOMM*%
%LPD*%
G01*
G04 APERTURE LIST*
%ADD10C,0.150000*%
G04 APERTURE END LIST*
D10*
X120799819Y-67430952D02*
X119799819Y-67430952D01*
X119799819Y-67430952D02*
X119799819Y-67811904D01*
X119799819Y-67811904D02*
X119847438Y-67907142D01*
X119847438Y-67907142D02*
X119895057Y-67954761D01*
X119895057Y-67954761D02*
X119990295Y-68002380D01*
X119990295Y-68002380D02*
X120133152Y-68002380D01*
X120133152Y-68002380D02*
X120228390Y-67954761D01*
X120228390Y-67954761D02*
X120276009Y-67907142D01*
X120276009Y-67907142D02*
X120323628Y-67811904D01*
X120323628Y-67811904D02*
X120323628Y-67430952D01*
X120895057Y-69097618D02*
X120847438Y-69002380D01*
X120847438Y-69002380D02*
X120752200Y-68907142D01*
X120752200Y-68907142D02*
X120609342Y-68764285D01*
X120609342Y-68764285D02*
X120561723Y-68669047D01*
X120561723Y-68669047D02*
X120561723Y-68573809D01*
X120799819Y-68621428D02*
X120752200Y-68526190D01*
X120752200Y-68526190D02*
X120656961Y-68430952D01*
X120656961Y-68430952D02*
X120466485Y-68383333D01*
X120466485Y-68383333D02*
X120133152Y-68383333D01*
X120133152Y-68383333D02*
X119942676Y-68430952D01*
X119942676Y-68430952D02*
X119847438Y-68526190D01*
X119847438Y-68526190D02*
X119799819Y-68621428D01*
X119799819Y-68621428D02*
X119799819Y-68811904D01*
X119799819Y-68811904D02*
X119847438Y-68907142D01*
X119847438Y-68907142D02*
X119942676Y-69002380D01*
X119942676Y-69002380D02*
X120133152Y-69049999D01*
X120133152Y-69049999D02*
X120466485Y-69049999D01*
X120466485Y-69049999D02*
X120656961Y-69002380D01*
X120656961Y-69002380D02*
X120752200Y-68907142D01*
X120752200Y-68907142D02*
X120799819Y-68811904D01*
X120799819Y-68811904D02*
X120799819Y-68621428D01*
X120799819Y-70002380D02*
X120799819Y-69430952D01*
X120799819Y-69716666D02*
X119799819Y-69716666D01*
X119799819Y-69716666D02*
X119942676Y-69621428D01*
X119942676Y-69621428D02*
X120037914Y-69526190D01*
X120037914Y-69526190D02*
X120085533Y-69430952D01*
X119799819Y-70621428D02*
X119799819Y-70716666D01*
X119799819Y-70716666D02*
X119847438Y-70811904D01*
X119847438Y-70811904D02*
X119895057Y-70859523D01*
X119895057Y-70859523D02*
X119990295Y-70907142D01*
X119990295Y-70907142D02*
X120180771Y-70954761D01*
X120180771Y-70954761D02*
X120418866Y-70954761D01*
X120418866Y-70954761D02*
X120609342Y-70907142D01*
X120609342Y-70907142D02*
X120704580Y-70859523D01*
X120704580Y-70859523D02*
X120752200Y-70811904D01*
X120752200Y-70811904D02*
X120799819Y-70716666D01*
X120799819Y-70716666D02*
X120799819Y-70621428D01*
X120799819Y-70621428D02*
X120752200Y-70526190D01*
X120752200Y-70526190D02*
X120704580Y-70478571D01*
X120704580Y-70478571D02*
X120609342Y-70430952D01*
X120609342Y-70430952D02*
X120418866Y-70383333D01*
X120418866Y-70383333D02*
X120180771Y-70383333D01*
X120180771Y-70383333D02*
X119990295Y-70430952D01*
X119990295Y-70430952D02*
X119895057Y-70478571D01*
X119895057Y-70478571D02*
X119847438Y-70526190D01*
X119847438Y-70526190D02*
X119799819Y-70621428D01*
X120276009Y-72478571D02*
X120323628Y-72621428D01*
X120323628Y-72621428D02*
X120371247Y-72669047D01*
X120371247Y-72669047D02*
X120466485Y-72716666D01*
X120466485Y-72716666D02*
X120609342Y-72716666D01*
X120609342Y-72716666D02*
X120704580Y-72669047D01*
X120704580Y-72669047D02*
X120752200Y-72621428D01*
X120752200Y-72621428D02*
X120799819Y-72526190D01*
X120799819Y-72526190D02*
X120799819Y-72145238D01*
X120799819Y-72145238D02*
X119799819Y-72145238D01*
X119799819Y-72145238D02*
X119799819Y-72478571D01*
X119799819Y-72478571D02*
X119847438Y-72573809D01*
X119847438Y-72573809D02*
X119895057Y-72621428D01*
X119895057Y-72621428D02*
X119990295Y-72669047D01*
X119990295Y-72669047D02*
X120085533Y-72669047D01*
X120085533Y-72669047D02*
X120180771Y-72621428D01*
X120180771Y-72621428D02*
X120228390Y-72573809D01*
X120228390Y-72573809D02*
X120276009Y-72478571D01*
X120276009Y-72478571D02*
X120276009Y-72145238D01*
X119799819Y-73145238D02*
X120609342Y-73145238D01*
X120609342Y-73145238D02*
X120704580Y-73192857D01*
X120704580Y-73192857D02*
X120752200Y-73240476D01*
X120752200Y-73240476D02*
X120799819Y-73335714D01*
X120799819Y-73335714D02*
X120799819Y-73526190D01*
X120799819Y-73526190D02*
X120752200Y-73621428D01*
X120752200Y-73621428D02*
X120704580Y-73669047D01*
X120704580Y-73669047D02*
X120609342Y-73716666D01*
X120609342Y-73716666D02*
X119799819Y-73716666D01*
X120752200Y-74145238D02*
X120799819Y-74288095D01*
X120799819Y-74288095D02*
X120799819Y-74526190D01*
X120799819Y-74526190D02*
X120752200Y-74621428D01*
X120752200Y-74621428D02*
X120704580Y-74669047D01*
X120704580Y-74669047D02*
X120609342Y-74716666D01*
X120609342Y-74716666D02*
X120514104Y-74716666D01*
X120514104Y-74716666D02*
X120418866Y-74669047D01*
X120418866Y-74669047D02*
X120371247Y-74621428D01*
X120371247Y-74621428D02*
X120323628Y-74526190D01*
X120323628Y-74526190D02*
X120276009Y-74335714D01*
X120276009Y-74335714D02*
X120228390Y-74240476D01*
X120228390Y-74240476D02*
X120180771Y-74192857D01*
X120180771Y-74192857D02*
X120085533Y-74145238D01*
X120085533Y-74145238D02*
X119990295Y-74145238D01*
X119990295Y-74145238D02*
X119895057Y-74192857D01*
X119895057Y-74192857D02*
X119847438Y-74240476D01*
X119847438Y-74240476D02*
X119799819Y-74335714D01*
X119799819Y-74335714D02*
X119799819Y-74573809D01*
X119799819Y-74573809D02*
X119847438Y-74716666D01*
X124019819Y-69597618D02*
X123543628Y-69264285D01*
X124019819Y-69026190D02*
X123019819Y-69026190D01*
X123019819Y-69026190D02*
X123019819Y-69407142D01*
X123019819Y-69407142D02*
X123067438Y-69502380D01*
X123067438Y-69502380D02*
X123115057Y-69549999D01*
X123115057Y-69549999D02*
X123210295Y-69597618D01*
X123210295Y-69597618D02*
X123353152Y-69597618D01*
X123353152Y-69597618D02*
X123448390Y-69549999D01*
X123448390Y-69549999D02*
X123496009Y-69502380D01*
X123496009Y-69502380D02*
X123543628Y-69407142D01*
X123543628Y-69407142D02*
X123543628Y-69026190D01*
X123496009Y-70026190D02*
X123496009Y-70359523D01*
X124019819Y-70502380D02*
X124019819Y-70026190D01*
X124019819Y-70026190D02*
X123019819Y-70026190D01*
X123019819Y-70026190D02*
X123019819Y-70502380D01*
X123972200Y-70883333D02*
X124019819Y-71026190D01*
X124019819Y-71026190D02*
X124019819Y-71264285D01*
X124019819Y-71264285D02*
X123972200Y-71359523D01*
X123972200Y-71359523D02*
X123924580Y-71407142D01*
X123924580Y-71407142D02*
X123829342Y-71454761D01*
X123829342Y-71454761D02*
X123734104Y-71454761D01*
X123734104Y-71454761D02*
X123638866Y-71407142D01*
X123638866Y-71407142D02*
X123591247Y-71359523D01*
X123591247Y-71359523D02*
X123543628Y-71264285D01*
X123543628Y-71264285D02*
X123496009Y-71073809D01*
X123496009Y-71073809D02*
X123448390Y-70978571D01*
X123448390Y-70978571D02*
X123400771Y-70930952D01*
X123400771Y-70930952D02*
X123305533Y-70883333D01*
X123305533Y-70883333D02*
X123210295Y-70883333D01*
X123210295Y-70883333D02*
X123115057Y-70930952D01*
X123115057Y-70930952D02*
X123067438Y-70978571D01*
X123067438Y-70978571D02*
X123019819Y-71073809D01*
X123019819Y-71073809D02*
X123019819Y-71311904D01*
X123019819Y-71311904D02*
X123067438Y-71454761D01*
X123496009Y-71883333D02*
X123496009Y-72216666D01*
X124019819Y-72359523D02*
X124019819Y-71883333D01*
X124019819Y-71883333D02*
X123019819Y-71883333D01*
X123019819Y-71883333D02*
X123019819Y-72359523D01*
X123019819Y-72645238D02*
X123019819Y-73216666D01*
X124019819Y-72930952D02*
X123019819Y-72930952D01*
X125582200Y-69383333D02*
X125629819Y-69526190D01*
X125629819Y-69526190D02*
X125629819Y-69764285D01*
X125629819Y-69764285D02*
X125582200Y-69859523D01*
X125582200Y-69859523D02*
X125534580Y-69907142D01*
X125534580Y-69907142D02*
X125439342Y-69954761D01*
X125439342Y-69954761D02*
X125344104Y-69954761D01*
X125344104Y-69954761D02*
X125248866Y-69907142D01*
X125248866Y-69907142D02*
X125201247Y-69859523D01*
X125201247Y-69859523D02*
X125153628Y-69764285D01*
X125153628Y-69764285D02*
X125106009Y-69573809D01*
X125106009Y-69573809D02*
X125058390Y-69478571D01*
X125058390Y-69478571D02*
X125010771Y-69430952D01*
X125010771Y-69430952D02*
X124915533Y-69383333D01*
X124915533Y-69383333D02*
X124820295Y-69383333D01*
X124820295Y-69383333D02*
X124725057Y-69430952D01*
X124725057Y-69430952D02*
X124677438Y-69478571D01*
X124677438Y-69478571D02*
X124629819Y-69573809D01*
X124629819Y-69573809D02*
X124629819Y-69811904D01*
X124629819Y-69811904D02*
X124677438Y-69954761D01*
X125534580Y-70954761D02*
X125582200Y-70907142D01*
X125582200Y-70907142D02*
X125629819Y-70764285D01*
X125629819Y-70764285D02*
X125629819Y-70669047D01*
X125629819Y-70669047D02*
X125582200Y-70526190D01*
X125582200Y-70526190D02*
X125486961Y-70430952D01*
X125486961Y-70430952D02*
X125391723Y-70383333D01*
X125391723Y-70383333D02*
X125201247Y-70335714D01*
X125201247Y-70335714D02*
X125058390Y-70335714D01*
X125058390Y-70335714D02*
X124867914Y-70383333D01*
X124867914Y-70383333D02*
X124772676Y-70430952D01*
X124772676Y-70430952D02*
X124677438Y-70526190D01*
X124677438Y-70526190D02*
X124629819Y-70669047D01*
X124629819Y-70669047D02*
X124629819Y-70764285D01*
X124629819Y-70764285D02*
X124677438Y-70907142D01*
X124677438Y-70907142D02*
X124725057Y-70954761D01*
X125629819Y-71859523D02*
X125629819Y-71383333D01*
X125629819Y-71383333D02*
X124629819Y-71383333D01*
X124629819Y-72383333D02*
X124629819Y-72478571D01*
X124629819Y-72478571D02*
X124677438Y-72573809D01*
X124677438Y-72573809D02*
X124725057Y-72621428D01*
X124725057Y-72621428D02*
X124820295Y-72669047D01*
X124820295Y-72669047D02*
X125010771Y-72716666D01*
X125010771Y-72716666D02*
X125248866Y-72716666D01*
X125248866Y-72716666D02*
X125439342Y-72669047D01*
X125439342Y-72669047D02*
X125534580Y-72621428D01*
X125534580Y-72621428D02*
X125582200Y-72573809D01*
X125582200Y-72573809D02*
X125629819Y-72478571D01*
X125629819Y-72478571D02*
X125629819Y-72383333D01*
X125629819Y-72383333D02*
X125582200Y-72288095D01*
X125582200Y-72288095D02*
X125534580Y-72240476D01*
X125534580Y-72240476D02*
X125439342Y-72192857D01*
X125439342Y-72192857D02*
X125248866Y-72145238D01*
X125248866Y-72145238D02*
X125010771Y-72145238D01*
X125010771Y-72145238D02*
X124820295Y-72192857D01*
X124820295Y-72192857D02*
X124725057Y-72240476D01*
X124725057Y-72240476D02*
X124677438Y-72288095D01*
X124677438Y-72288095D02*
X124629819Y-72383333D01*
X127192200Y-69359524D02*
X127239819Y-69502381D01*
X127239819Y-69502381D02*
X127239819Y-69740476D01*
X127239819Y-69740476D02*
X127192200Y-69835714D01*
X127192200Y-69835714D02*
X127144580Y-69883333D01*
X127144580Y-69883333D02*
X127049342Y-69930952D01*
X127049342Y-69930952D02*
X126954104Y-69930952D01*
X126954104Y-69930952D02*
X126858866Y-69883333D01*
X126858866Y-69883333D02*
X126811247Y-69835714D01*
X126811247Y-69835714D02*
X126763628Y-69740476D01*
X126763628Y-69740476D02*
X126716009Y-69550000D01*
X126716009Y-69550000D02*
X126668390Y-69454762D01*
X126668390Y-69454762D02*
X126620771Y-69407143D01*
X126620771Y-69407143D02*
X126525533Y-69359524D01*
X126525533Y-69359524D02*
X126430295Y-69359524D01*
X126430295Y-69359524D02*
X126335057Y-69407143D01*
X126335057Y-69407143D02*
X126287438Y-69454762D01*
X126287438Y-69454762D02*
X126239819Y-69550000D01*
X126239819Y-69550000D02*
X126239819Y-69788095D01*
X126239819Y-69788095D02*
X126287438Y-69930952D01*
X127239819Y-70359524D02*
X126239819Y-70359524D01*
X126239819Y-70359524D02*
X126239819Y-70597619D01*
X126239819Y-70597619D02*
X126287438Y-70740476D01*
X126287438Y-70740476D02*
X126382676Y-70835714D01*
X126382676Y-70835714D02*
X126477914Y-70883333D01*
X126477914Y-70883333D02*
X126668390Y-70930952D01*
X126668390Y-70930952D02*
X126811247Y-70930952D01*
X126811247Y-70930952D02*
X127001723Y-70883333D01*
X127001723Y-70883333D02*
X127096961Y-70835714D01*
X127096961Y-70835714D02*
X127192200Y-70740476D01*
X127192200Y-70740476D02*
X127239819Y-70597619D01*
X127239819Y-70597619D02*
X127239819Y-70359524D01*
X126954104Y-71311905D02*
X126954104Y-71788095D01*
X127239819Y-71216667D02*
X126239819Y-71550000D01*
X126239819Y-71550000D02*
X127239819Y-71883333D01*
X126239819Y-72407143D02*
X126239819Y-72502381D01*
X126239819Y-72502381D02*
X126287438Y-72597619D01*
X126287438Y-72597619D02*
X126335057Y-72645238D01*
X126335057Y-72645238D02*
X126430295Y-72692857D01*
X126430295Y-72692857D02*
X126620771Y-72740476D01*
X126620771Y-72740476D02*
X126858866Y-72740476D01*
X126858866Y-72740476D02*
X127049342Y-72692857D01*
X127049342Y-72692857D02*
X127144580Y-72645238D01*
X127144580Y-72645238D02*
X127192200Y-72597619D01*
X127192200Y-72597619D02*
X127239819Y-72502381D01*
X127239819Y-72502381D02*
X127239819Y-72407143D01*
X127239819Y-72407143D02*
X127192200Y-72311905D01*
X127192200Y-72311905D02*
X127144580Y-72264286D01*
X127144580Y-72264286D02*
X127049342Y-72216667D01*
X127049342Y-72216667D02*
X126858866Y-72169048D01*
X126858866Y-72169048D02*
X126620771Y-72169048D01*
X126620771Y-72169048D02*
X126430295Y-72216667D01*
X126430295Y-72216667D02*
X126335057Y-72264286D01*
X126335057Y-72264286D02*
X126287438Y-72311905D01*
X126287438Y-72311905D02*
X126239819Y-72407143D01*
X127897438Y-70288095D02*
X127849819Y-70192857D01*
X127849819Y-70192857D02*
X127849819Y-70050000D01*
X127849819Y-70050000D02*
X127897438Y-69907143D01*
X127897438Y-69907143D02*
X127992676Y-69811905D01*
X127992676Y-69811905D02*
X128087914Y-69764286D01*
X128087914Y-69764286D02*
X128278390Y-69716667D01*
X128278390Y-69716667D02*
X128421247Y-69716667D01*
X128421247Y-69716667D02*
X128611723Y-69764286D01*
X128611723Y-69764286D02*
X128706961Y-69811905D01*
X128706961Y-69811905D02*
X128802200Y-69907143D01*
X128802200Y-69907143D02*
X128849819Y-70050000D01*
X128849819Y-70050000D02*
X128849819Y-70145238D01*
X128849819Y-70145238D02*
X128802200Y-70288095D01*
X128802200Y-70288095D02*
X128754580Y-70335714D01*
X128754580Y-70335714D02*
X128421247Y-70335714D01*
X128421247Y-70335714D02*
X128421247Y-70145238D01*
X128849819Y-70764286D02*
X127849819Y-70764286D01*
X127849819Y-70764286D02*
X128849819Y-71335714D01*
X128849819Y-71335714D02*
X127849819Y-71335714D01*
X128849819Y-71811905D02*
X127849819Y-71811905D01*
X127849819Y-71811905D02*
X127849819Y-72050000D01*
X127849819Y-72050000D02*
X127897438Y-72192857D01*
X127897438Y-72192857D02*
X127992676Y-72288095D01*
X127992676Y-72288095D02*
X128087914Y-72335714D01*
X128087914Y-72335714D02*
X128278390Y-72383333D01*
X128278390Y-72383333D02*
X128421247Y-72383333D01*
X128421247Y-72383333D02*
X128611723Y-72335714D01*
X128611723Y-72335714D02*
X128706961Y-72288095D01*
X128706961Y-72288095D02*
X128802200Y-72192857D01*
X128802200Y-72192857D02*
X128849819Y-72050000D01*
X128849819Y-72050000D02*
X128849819Y-71811905D01*
X129459819Y-70859523D02*
X129459819Y-70383333D01*
X129459819Y-70383333D02*
X129936009Y-70335714D01*
X129936009Y-70335714D02*
X129888390Y-70383333D01*
X129888390Y-70383333D02*
X129840771Y-70478571D01*
X129840771Y-70478571D02*
X129840771Y-70716666D01*
X129840771Y-70716666D02*
X129888390Y-70811904D01*
X129888390Y-70811904D02*
X129936009Y-70859523D01*
X129936009Y-70859523D02*
X130031247Y-70907142D01*
X130031247Y-70907142D02*
X130269342Y-70907142D01*
X130269342Y-70907142D02*
X130364580Y-70859523D01*
X130364580Y-70859523D02*
X130412200Y-70811904D01*
X130412200Y-70811904D02*
X130459819Y-70716666D01*
X130459819Y-70716666D02*
X130459819Y-70478571D01*
X130459819Y-70478571D02*
X130412200Y-70383333D01*
X130412200Y-70383333D02*
X130364580Y-70335714D01*
X129459819Y-71192857D02*
X130459819Y-71526190D01*
X130459819Y-71526190D02*
X129459819Y-71859523D01*
X131069819Y-69811905D02*
X131069819Y-70430952D01*
X131069819Y-70430952D02*
X131450771Y-70097619D01*
X131450771Y-70097619D02*
X131450771Y-70240476D01*
X131450771Y-70240476D02*
X131498390Y-70335714D01*
X131498390Y-70335714D02*
X131546009Y-70383333D01*
X131546009Y-70383333D02*
X131641247Y-70430952D01*
X131641247Y-70430952D02*
X131879342Y-70430952D01*
X131879342Y-70430952D02*
X131974580Y-70383333D01*
X131974580Y-70383333D02*
X132022200Y-70335714D01*
X132022200Y-70335714D02*
X132069819Y-70240476D01*
X132069819Y-70240476D02*
X132069819Y-69954762D01*
X132069819Y-69954762D02*
X132022200Y-69859524D01*
X132022200Y-69859524D02*
X131974580Y-69811905D01*
X131069819Y-70716667D02*
X132069819Y-71050000D01*
X132069819Y-71050000D02*
X131069819Y-71383333D01*
X131069819Y-71621429D02*
X131069819Y-72240476D01*
X131069819Y-72240476D02*
X131450771Y-71907143D01*
X131450771Y-71907143D02*
X131450771Y-72050000D01*
X131450771Y-72050000D02*
X131498390Y-72145238D01*
X131498390Y-72145238D02*
X131546009Y-72192857D01*
X131546009Y-72192857D02*
X131641247Y-72240476D01*
X131641247Y-72240476D02*
X131879342Y-72240476D01*
X131879342Y-72240476D02*
X131974580Y-72192857D01*
X131974580Y-72192857D02*
X132022200Y-72145238D01*
X132022200Y-72145238D02*
X132069819Y-72050000D01*
X132069819Y-72050000D02*
X132069819Y-71764286D01*
X132069819Y-71764286D02*
X132022200Y-71669048D01*
X132022200Y-71669048D02*
X131974580Y-71621429D01*
X133632200Y-67407143D02*
X133679819Y-67550000D01*
X133679819Y-67550000D02*
X133679819Y-67788095D01*
X133679819Y-67788095D02*
X133632200Y-67883333D01*
X133632200Y-67883333D02*
X133584580Y-67930952D01*
X133584580Y-67930952D02*
X133489342Y-67978571D01*
X133489342Y-67978571D02*
X133394104Y-67978571D01*
X133394104Y-67978571D02*
X133298866Y-67930952D01*
X133298866Y-67930952D02*
X133251247Y-67883333D01*
X133251247Y-67883333D02*
X133203628Y-67788095D01*
X133203628Y-67788095D02*
X133156009Y-67597619D01*
X133156009Y-67597619D02*
X133108390Y-67502381D01*
X133108390Y-67502381D02*
X133060771Y-67454762D01*
X133060771Y-67454762D02*
X132965533Y-67407143D01*
X132965533Y-67407143D02*
X132870295Y-67407143D01*
X132870295Y-67407143D02*
X132775057Y-67454762D01*
X132775057Y-67454762D02*
X132727438Y-67502381D01*
X132727438Y-67502381D02*
X132679819Y-67597619D01*
X132679819Y-67597619D02*
X132679819Y-67835714D01*
X132679819Y-67835714D02*
X132727438Y-67978571D01*
X133584580Y-68978571D02*
X133632200Y-68930952D01*
X133632200Y-68930952D02*
X133679819Y-68788095D01*
X133679819Y-68788095D02*
X133679819Y-68692857D01*
X133679819Y-68692857D02*
X133632200Y-68550000D01*
X133632200Y-68550000D02*
X133536961Y-68454762D01*
X133536961Y-68454762D02*
X133441723Y-68407143D01*
X133441723Y-68407143D02*
X133251247Y-68359524D01*
X133251247Y-68359524D02*
X133108390Y-68359524D01*
X133108390Y-68359524D02*
X132917914Y-68407143D01*
X132917914Y-68407143D02*
X132822676Y-68454762D01*
X132822676Y-68454762D02*
X132727438Y-68550000D01*
X132727438Y-68550000D02*
X132679819Y-68692857D01*
X132679819Y-68692857D02*
X132679819Y-68788095D01*
X132679819Y-68788095D02*
X132727438Y-68930952D01*
X132727438Y-68930952D02*
X132775057Y-68978571D01*
X133679819Y-69883333D02*
X133679819Y-69407143D01*
X133679819Y-69407143D02*
X132679819Y-69407143D01*
X133679819Y-70740476D02*
X133679819Y-70169048D01*
X133679819Y-70454762D02*
X132679819Y-70454762D01*
X132679819Y-70454762D02*
X132822676Y-70359524D01*
X132822676Y-70359524D02*
X132917914Y-70264286D01*
X132917914Y-70264286D02*
X132965533Y-70169048D01*
X132632200Y-71883333D02*
X133917914Y-71026191D01*
X133679819Y-72788095D02*
X133203628Y-72454762D01*
X133679819Y-72216667D02*
X132679819Y-72216667D01*
X132679819Y-72216667D02*
X132679819Y-72597619D01*
X132679819Y-72597619D02*
X132727438Y-72692857D01*
X132727438Y-72692857D02*
X132775057Y-72740476D01*
X132775057Y-72740476D02*
X132870295Y-72788095D01*
X132870295Y-72788095D02*
X133013152Y-72788095D01*
X133013152Y-72788095D02*
X133108390Y-72740476D01*
X133108390Y-72740476D02*
X133156009Y-72692857D01*
X133156009Y-72692857D02*
X133203628Y-72597619D01*
X133203628Y-72597619D02*
X133203628Y-72216667D01*
X132679819Y-73121429D02*
X133679819Y-73788095D01*
X132679819Y-73788095D02*
X133679819Y-73121429D01*
X133679819Y-74692857D02*
X133679819Y-74121429D01*
X133679819Y-74407143D02*
X132679819Y-74407143D01*
X132679819Y-74407143D02*
X132822676Y-74311905D01*
X132822676Y-74311905D02*
X132917914Y-74216667D01*
X132917914Y-74216667D02*
X132965533Y-74121429D01*
X135242200Y-67502381D02*
X135289819Y-67645238D01*
X135289819Y-67645238D02*
X135289819Y-67883333D01*
X135289819Y-67883333D02*
X135242200Y-67978571D01*
X135242200Y-67978571D02*
X135194580Y-68026190D01*
X135194580Y-68026190D02*
X135099342Y-68073809D01*
X135099342Y-68073809D02*
X135004104Y-68073809D01*
X135004104Y-68073809D02*
X134908866Y-68026190D01*
X134908866Y-68026190D02*
X134861247Y-67978571D01*
X134861247Y-67978571D02*
X134813628Y-67883333D01*
X134813628Y-67883333D02*
X134766009Y-67692857D01*
X134766009Y-67692857D02*
X134718390Y-67597619D01*
X134718390Y-67597619D02*
X134670771Y-67550000D01*
X134670771Y-67550000D02*
X134575533Y-67502381D01*
X134575533Y-67502381D02*
X134480295Y-67502381D01*
X134480295Y-67502381D02*
X134385057Y-67550000D01*
X134385057Y-67550000D02*
X134337438Y-67597619D01*
X134337438Y-67597619D02*
X134289819Y-67692857D01*
X134289819Y-67692857D02*
X134289819Y-67930952D01*
X134289819Y-67930952D02*
X134337438Y-68073809D01*
X135289819Y-68502381D02*
X134289819Y-68502381D01*
X134289819Y-68502381D02*
X134289819Y-68740476D01*
X134289819Y-68740476D02*
X134337438Y-68883333D01*
X134337438Y-68883333D02*
X134432676Y-68978571D01*
X134432676Y-68978571D02*
X134527914Y-69026190D01*
X134527914Y-69026190D02*
X134718390Y-69073809D01*
X134718390Y-69073809D02*
X134861247Y-69073809D01*
X134861247Y-69073809D02*
X135051723Y-69026190D01*
X135051723Y-69026190D02*
X135146961Y-68978571D01*
X135146961Y-68978571D02*
X135242200Y-68883333D01*
X135242200Y-68883333D02*
X135289819Y-68740476D01*
X135289819Y-68740476D02*
X135289819Y-68502381D01*
X135004104Y-69454762D02*
X135004104Y-69930952D01*
X135289819Y-69359524D02*
X134289819Y-69692857D01*
X134289819Y-69692857D02*
X135289819Y-70026190D01*
X135289819Y-70883333D02*
X135289819Y-70311905D01*
X135289819Y-70597619D02*
X134289819Y-70597619D01*
X134289819Y-70597619D02*
X134432676Y-70502381D01*
X134432676Y-70502381D02*
X134527914Y-70407143D01*
X134527914Y-70407143D02*
X134575533Y-70311905D01*
X134242200Y-72026190D02*
X135527914Y-71169048D01*
X134289819Y-72216667D02*
X134289819Y-72788095D01*
X135289819Y-72502381D02*
X134289819Y-72502381D01*
X134289819Y-73026191D02*
X135289819Y-73692857D01*
X134289819Y-73692857D02*
X135289819Y-73026191D01*
X135289819Y-74597619D02*
X135289819Y-74026191D01*
X135289819Y-74311905D02*
X134289819Y-74311905D01*
X134289819Y-74311905D02*
X134432676Y-74216667D01*
X134432676Y-74216667D02*
X134527914Y-74121429D01*
X134527914Y-74121429D02*
X134575533Y-74026191D01*
X136899819Y-70407142D02*
X136423628Y-70073809D01*
X136899819Y-69835714D02*
X135899819Y-69835714D01*
X135899819Y-69835714D02*
X135899819Y-70216666D01*
X135899819Y-70216666D02*
X135947438Y-70311904D01*
X135947438Y-70311904D02*
X135995057Y-70359523D01*
X135995057Y-70359523D02*
X136090295Y-70407142D01*
X136090295Y-70407142D02*
X136233152Y-70407142D01*
X136233152Y-70407142D02*
X136328390Y-70359523D01*
X136328390Y-70359523D02*
X136376009Y-70311904D01*
X136376009Y-70311904D02*
X136423628Y-70216666D01*
X136423628Y-70216666D02*
X136423628Y-69835714D01*
X135899819Y-70740476D02*
X136899819Y-71407142D01*
X135899819Y-71407142D02*
X136899819Y-70740476D01*
X135995057Y-71740476D02*
X135947438Y-71788095D01*
X135947438Y-71788095D02*
X135899819Y-71883333D01*
X135899819Y-71883333D02*
X135899819Y-72121428D01*
X135899819Y-72121428D02*
X135947438Y-72216666D01*
X135947438Y-72216666D02*
X135995057Y-72264285D01*
X135995057Y-72264285D02*
X136090295Y-72311904D01*
X136090295Y-72311904D02*
X136185533Y-72311904D01*
X136185533Y-72311904D02*
X136328390Y-72264285D01*
X136328390Y-72264285D02*
X136899819Y-71692857D01*
X136899819Y-71692857D02*
X136899819Y-72311904D01*
X137509819Y-69811905D02*
X137509819Y-70383333D01*
X138509819Y-70097619D02*
X137509819Y-70097619D01*
X137509819Y-70621429D02*
X138509819Y-71288095D01*
X137509819Y-71288095D02*
X138509819Y-70621429D01*
X137605057Y-71621429D02*
X137557438Y-71669048D01*
X137557438Y-71669048D02*
X137509819Y-71764286D01*
X137509819Y-71764286D02*
X137509819Y-72002381D01*
X137509819Y-72002381D02*
X137557438Y-72097619D01*
X137557438Y-72097619D02*
X137605057Y-72145238D01*
X137605057Y-72145238D02*
X137700295Y-72192857D01*
X137700295Y-72192857D02*
X137795533Y-72192857D01*
X137795533Y-72192857D02*
X137938390Y-72145238D01*
X137938390Y-72145238D02*
X138509819Y-71573810D01*
X138509819Y-71573810D02*
X138509819Y-72192857D01*
M02*
